<?xml version="1.0" encoding="utf-8"?>
<!-- Generator: Adobe Illustrator 23.0.0, SVG Export Plug-In . SVG Version: 6.00 Build 0)  -->
<svg version="1.1" id="blue" xmlns="http://www.w3.org/2000/svg" xmlns:xlink="http://www.w3.org/1999/xlink" x="0px" y="0px"
	 viewBox="0 0 514.29 491.27" style="enable-background:new 0 0 514.29 491.27;" xml:space="preserve">
<style type="text/css">
	.st0{fill:#336170;}
	.st1{fill:#0F373F;}
	.st2{fill:#FFFFFF;}
	.st3{fill:#D5DAEE;}
	.st4{fill:#608F9A;}
</style>
<g id="blue_1_">
	<g>
		<path id="body" class="st0" d="M492.94,229.3c-4.24,0.75-8.61-0.29-12.07-2.85l-17.58-13.03l20.79-8.95
			c13.21-5.69,21.14-19.37,19.51-33.66l-3.3-28.92l-2.86,20c-0.71,4.98-3.79,9.3-8.26,11.6l-31.87,16.4l-0.73-56.63
			c-0.16-12.1-9.55-22.06-21.62-22.94l-33.66-2.43l26.68,10.67c7.86,3.14,12.63,11.17,11.64,19.58l-4.32,36.75h-6.75
			c-47.75,7.5-33.25-14-27.25-27.25v-5.75l-11.83,15.64c-8.97,11.86-6.78,28.72,4.92,37.89l15.91,12.47l-106.6,78.64l-12.4-63.35
			l12.48-153.09c1.9-23.27-16.47-43.2-39.82-43.2h-85.43c-19.35,0-34.93,15.88-34.57,35.22l4.35,233.78
			c-30.68,8.47-54,5.95-58-25.38c19.52,4.76,25.14-9.04,22-34.55c0.8,21.97-14.65,23.38-37,16.06c-17.03-13.56-27.82-27.94-8-46.31
			c-27.38,14.29-28.32,33.5-16,55.18c-16.68-6.81-34.04-13.21-28-33.42c-17.45,14.08-2.02,31.71,14,49.42
			c-15.49,15.81-28.76,22.44-35,0c-8.84,25,8.85,30.9,36,30c21.18,38.19,53.12,53.67,95.15,47.84c7.83-1.09,14.85,4.9,14.85,12.81
			v92.62c1.32,21.83,16.82,22.74,37,16.73l7.72-19.3c1.68-4.19,5.74-6.94,10.25-6.94h22.29c5.56,0,10.26,4.14,10.95,9.66l2.78,22.14
			c25.61,11.92,47.32,14.76,57-10.56l4-104.06l2.61-23.51l132.39-113.84l33.59,11.84c7.22,2.54,15.2,1.71,21.73-2.29l23.68-14.47
			L492.94,229.3z"/>
		<path class="st1" d="M273.96,168.2v128c0,6.6-5.4,12-12,12h-77.67v-152h77.67C268.56,156.2,273.96,161.6,273.96,168.2z"/>
		<g>
			<path class="st2" d="M176.29,186.87L176.29,186.87c-6.6,0-12-5.4-12-12v-8.67c0-6.6,5.4-12,12-12l0,0c6.6,0,12,5.4,12,12v8.67
				C188.29,181.47,182.89,186.87,176.29,186.87z"/>
			<path class="st2" d="M202.29,186.87L202.29,186.87c-6.6,0-12-5.4-12-12v-8.67c0-6.6,5.4-12,12-12l0,0c6.6,0,12,5.4,12,12v8.67
				C214.29,181.47,208.89,186.87,202.29,186.87z"/>
			<path class="st2" d="M228.63,186.87L228.63,186.87c-6.6,0-12-5.4-12-12v-8.67c0-6.6,5.4-12,12-12l0,0c6.6,0,12,5.4,12,12v8.67
				C240.63,181.47,235.23,186.87,228.63,186.87z"/>
			<path class="st2" d="M255.29,186.87L255.29,186.87c-6.6,0-12-5.4-12-12v-8.67c0-6.6,5.4-12,12-12l0,0c6.6,0,12,5.4,12,12v8.67
				C267.29,181.47,261.89,186.87,255.29,186.87z"/>
		</g>
		<g>
			<path class="st2" d="M174.79,313.2L174.79,313.2c-6.6,0-12-5.4-12-12v-8.67c0-6.6,5.4-12,12-12l0,0c6.6,0,12,5.4,12,12v8.67
				C186.79,307.8,181.39,313.2,174.79,313.2z"/>
			<path class="st2" d="M200.79,313.2L200.79,313.2c-6.6,0-12-5.4-12-12v-8.67c0-6.6,5.4-12,12-12l0,0c6.6,0,12,5.4,12,12v8.67
				C212.79,307.8,207.39,313.2,200.79,313.2z"/>
			<path class="st2" d="M227.13,313.2L227.13,313.2c-6.6,0-12-5.4-12-12v-8.67c0-6.6,5.4-12,12-12l0,0c6.6,0,12,5.4,12,12v8.67
				C239.13,307.8,233.73,313.2,227.13,313.2z"/>
			<path class="st2" d="M253.79,313.2L253.79,313.2c-6.6,0-12-5.4-12-12v-8.67c0-6.6,5.4-12,12-12l0,0c6.6,0,12,5.4,12,12v8.67
				C265.79,307.8,260.39,313.2,253.79,313.2z"/>
		</g>
	</g>
	<g>
		<g>
			<path class="st1" d="M323.31,69.86c0,26.82-15.13,50.14-37.35,61.83c-9.7,5.14-20.78,8.03-32.5,8.03
				c-38.57,0-69.86-31.28-69.86-69.86C183.59,31.28,214.88,0,253.45,0c1.8,0,3.57,0.06,5.3,0.22
				C294.85,2.92,323.31,33.08,323.31,69.86z"/>
			<path class="st3" d="M314.09,68.41c0,28.55-20.52,52.45-48.11,58.78c-4.69,1.09-9.6,1.67-14.65,1.67
				c-34.62,0-62.73-27.04-62.73-60.45c0-31.96,25.73-58.13,58.3-60.32c1.45-0.1,2.96-0.16,4.43-0.16
				C285.99,7.93,314.09,35.01,314.09,68.41z"/>
			<path class="st2" d="M314.09,68.41c0,28.55-20.52,52.45-48.11,58.78c-26.11-10.08-44.61-35.43-44.61-65.14
				c0-21.74,9.92-41.18,25.53-53.96c1.45-0.1,2.96-0.16,4.43-0.16C285.99,7.93,314.09,35.01,314.09,68.41z"/>
			<path class="st4" d="M293.6,69.81c0,20.33-17.09,36.81-38.18,36.81s-38.18-16.48-38.18-36.81c0-20.33,17.09-36.81,38.18-36.81
				S293.6,49.49,293.6,69.81z"/>
			<path class="st1" d="M281.35,69.86c0,13.81-11.61,25-25.94,25c-14.32,0-25.94-11.19-25.94-25c0-13.81,11.61-25,25.94-25
				C269.74,44.86,281.35,56.05,281.35,69.86z"/>
			<ellipse class="st2" cx="240.07" cy="51.02" rx="22.83" ry="22.01"/>
		</g>
		<g>
			<path class="st1" d="M197.74,69.81c0,20.08-11.33,37.54-27.96,46.29c-7.26,3.85-15.56,6.01-24.33,6.01
				c-28.88,0-52.3-23.42-52.3-52.3c0-28.88,23.42-52.3,52.3-52.3c1.35,0,2.67,0.05,3.97,0.17C176.43,19.7,197.74,42.28,197.74,69.81
				z"/>
			<path class="st3" d="M190.84,68.73c0,21.38-15.37,39.27-36.02,44c-3.51,0.82-7.19,1.25-10.96,1.25
				c-25.92,0-46.96-20.25-46.96-45.25c0-23.92,19.26-43.52,43.64-45.16c1.08-0.07,2.21-0.12,3.32-0.12
				C169.8,23.45,190.84,43.72,190.84,68.73z"/>
			<path class="st2" d="M190.84,68.73c0,21.38-15.37,39.27-36.02,44c-19.55-7.55-33.4-26.52-33.4-48.76
				c0-16.28,7.43-30.83,19.12-40.4c1.08-0.07,2.21-0.12,3.32-0.12C169.8,23.45,190.84,43.72,190.84,68.73z"/>
			<path class="st4" d="M175.5,69.78c0,15.22-12.8,27.56-28.58,27.56c-15.79,0-28.58-12.34-28.58-27.56
				c0-15.22,12.8-27.55,28.58-27.55C162.7,42.23,175.5,54.56,175.5,69.78z"/>
			<path class="st1" d="M166.33,69.81c0,10.34-8.69,18.72-19.42,18.72c-10.72,0-19.42-8.38-19.42-18.72
				c0-10.34,8.69-18.72,19.42-18.72C157.64,51.1,166.33,59.48,166.33,69.81z"/>
			<path class="st2" d="M152.51,55.71c0,9.1-7.65,16.48-17.09,16.48c-9.44,0-17.09-7.38-17.09-16.48c0-9.1,7.65-16.48,17.09-16.48
				C144.86,39.24,152.51,46.62,152.51,55.71z"/>
		</g>
	</g>
</g>
</svg>
