<?xml version="1.0" encoding="utf-8"?>
<!-- Generator: Adobe Illustrator 23.0.0, SVG Export Plug-In . SVG Version: 6.00 Build 0)  -->
<svg version="1.1" id="grey" xmlns="http://www.w3.org/2000/svg" xmlns:xlink="http://www.w3.org/1999/xlink" x="0px" y="0px"
	 viewBox="0 0 505.76 488.22" style="enable-background:new 0 0 505.76 488.22;" xml:space="preserve">
<style type="text/css">
	.st0{fill:#744C54;}
	.st1{fill:#8D636A;}
	.st2{fill:#B0B394;}
	.st3{fill:#D0D1B3;}
	.st4{fill:#F4F4F2;}
	.st5{fill:#755057;}
	.st6{fill:#FFFFFF;}
	.st7{fill:#F7E4E7;}
	.st8{fill:#CC96A0;}


#grey_1_:hover #tummy  {fill: red;}


</style>
<g id="grey_1_">
	<g>
		<g>
			<g>
				<path class="st0" d="M227.17,412.74l-2.79,56.03c-0.37,7.5-6.51,13.38-13.96,13.38h-3.62c-0.88,0-1.76-0.06-2.62-0.18
					l-21.84-3.03c-2.27-0.31-4.57-0.35-6.84-0.11l-13.48,1.41c-0.62,0.06-1.24,0.04-1.84-0.08c-1.77-3.15-4.38-7.12-5.34-10.29
					c0.45-2.02,1.49-3.9,3.02-5.35c0.74-0.7,1.58-1.3,2.54-1.78l21.36-10.62l-1.22-43.28l44.4,3.69L227.17,412.74z"/>
				<path class="st1" d="M227.17,412.74l-2.79,56.03c-0.37,7.5-6.51,13.38-13.96,13.38h-3.62c-0.88,0-1.76-0.06-2.62-0.18
					l-21.84-3.03c-2.27-0.31-4.57-0.35-6.84-0.11l-13.48,1.41c-0.62,0.06-1.24,0.04-1.84-0.08c-1.77-3.15-4.38-7.12-5.34-10.29
					c0.45-2.02,1.49-3.9,3.02-5.35l29.68-6.55l-1.22-43.29l38.63-2.14L227.17,412.74z"/>
				<path class="st0" d="M162.57,476.46c0,6.37-5.13,11.54-11.45,11.54c-6.33,0-11.45-5.16-11.45-11.54
					c0-6.37,5.13-11.54,11.45-11.54C157.45,464.93,162.57,470.09,162.57,476.46z"/>
				<path class="st1" d="M160.5,476.46c0,4.81-3.87,8.7-8.64,8.7c-4.77,0-8.64-3.9-8.64-8.7c0-4.81,3.87-8.7,8.64-8.7
					C156.63,467.76,160.5,471.66,160.5,476.46z"/>
				<path class="st0" d="M176.97,475.2c0,7.19-5.79,13.02-12.92,13.02c-7.14,0-12.92-5.83-12.92-13.02
					c0-7.19,5.79-13.02,12.92-13.02C171.18,462.19,176.97,468.02,176.97,475.2z"/>
				<path class="st1" d="M173.5,475.2c0,5.26-4.23,9.52-9.45,9.52s-9.45-4.26-9.45-9.52c0-5.26,4.23-9.52,9.45-9.52
					S173.5,469.95,173.5,475.2z"/>
				<path class="st0" d="M200.73,472.17c0,8.44-6.79,15.28-15.17,15.28c-8.38,0-15.17-6.84-15.17-15.28s6.79-15.28,15.17-15.28
					C193.93,456.89,200.73,463.73,200.73,472.17z"/>
				<ellipse class="st1" cx="185.55" cy="472.17" rx="11.1" ry="11.18"/>
				<ellipse class="st0" cx="214.67" cy="467.75" rx="19.56" ry="19.7"/>
				<path class="st1" d="M228.98,467.75c0,7.96-6.41,14.41-14.31,14.41c-7.9,0-14.31-6.45-14.31-14.41
					c0-7.96,6.41-14.41,14.31-14.41C222.57,453.34,228.98,459.79,228.98,467.75z"/>
			</g>
			<g>
				<path class="st0" d="M257.55,412.74l2.79,56.03c0.37,7.5,6.51,13.38,13.96,13.38h3.62c0.88,0,1.76-0.06,2.62-0.18l21.84-3.03
					c2.27-0.31,4.57-0.35,6.84-0.11l13.48,1.41c0.62,0.06,1.24,0.04,1.84-0.08c1.77-3.15,4.38-7.12,5.34-10.29
					c-0.45-2.02-1.49-3.9-3.02-5.35c-0.74-0.7-1.58-1.3-2.54-1.78l-21.36-10.62l1.22-43.28l-44.4,3.69L257.55,412.74z"/>
				<path class="st1" d="M257.55,412.74l2.79,56.03c0.37,7.5,6.51,13.38,13.96,13.38h3.62c0.88,0,1.76-0.06,2.62-0.18l21.84-3.03
					c2.27-0.31,4.57-0.35,6.84-0.11l13.48,1.41c0.62,0.06,1.24,0.04,1.84-0.08c1.77-3.15,4.38-7.12,5.34-10.29
					c-0.45-2.02-1.49-3.9-3.02-5.35l-29.68-6.55l1.22-43.29l-38.63-2.14L257.55,412.74z"/>
				<path class="st0" d="M322.14,476.46c0,6.37,5.13,11.54,11.45,11.54c6.32,0,11.45-5.16,11.45-11.54
					c0-6.37-5.13-11.54-11.45-11.54C327.27,464.93,322.14,470.09,322.14,476.46z"/>
				<path class="st1" d="M324.22,476.46c0,4.81,3.87,8.7,8.64,8.7c4.77,0,8.64-3.9,8.64-8.7c0-4.81-3.87-8.7-8.64-8.7
					C328.09,467.76,324.22,471.66,324.22,476.46z"/>
				<path class="st0" d="M307.75,475.2c0,7.19,5.79,13.02,12.92,13.02c7.14,0,12.92-5.83,12.92-13.02c0-7.19-5.79-13.02-12.92-13.02
					C313.53,462.19,307.75,468.02,307.75,475.2z"/>
				<path class="st1" d="M311.22,475.2c0,5.26,4.23,9.52,9.45,9.52c5.22,0,9.45-4.26,9.45-9.52c0-5.26-4.23-9.52-9.45-9.52
					C315.45,465.68,311.22,469.95,311.22,475.2z"/>
				<path class="st0" d="M283.99,472.17c0,8.44,6.79,15.28,15.17,15.28c8.38,0,15.17-6.84,15.17-15.28s-6.79-15.28-15.17-15.28
					C290.78,456.89,283.99,463.73,283.99,472.17z"/>
				<path class="st1" d="M288.06,472.17c0,6.17,4.97,11.18,11.1,11.18c6.13,0,11.1-5.01,11.1-11.18c0-6.17-4.97-11.18-11.1-11.18
					C293.03,460.99,288.06,466,288.06,472.17z"/>
				<ellipse class="st0" cx="270.04" cy="467.75" rx="19.56" ry="19.7"/>
				<path class="st1" d="M255.74,467.75c0,7.96,6.41,14.41,14.31,14.41c7.9,0,14.31-6.45,14.31-14.41c0-7.96-6.41-14.41-14.31-14.41
					C262.14,453.34,255.74,459.79,255.74,467.75z"/>
			</g>
		</g>
		<g>
			<path class="st2" d="M47.57,96.48l-29.93,3.69c-7.43,0.92-14.51-3.41-17.15-10.47L0,88.36l42.14-6.44L7.3,32.37
				c-7.11-10.11-5.4-24,3.94-32.06L11.62,0l44.26,71.68l21.04-41.33l6.01,3.3c7.81,4.28,10.47,14.27,5.84,21.92L72.21,82.91
				l39.41-2.92l-4.87,6.76c-4.78,6.64-12.36,10.66-20.5,10.89l-8.47,0.23l1.44,31.18c0.59,12.7,7.86,24.12,19.07,29.97l0,0
				c11.83,6.17,18.76,18.95,17.52,32.3l-1.31,14.1c-1.43,15.37,10.9,28.49,26.22,27.89l70.21-2.74l-84.25,21.22
				c-16.81,4.23-32.79-9.4-31.41-26.8l1.05-13.21c0.98-12.31-4.97-24.14-15.4-30.63l-13.27-8.26c-9.68-6.02-15.89-16.37-16.69-27.8
				L47.57,96.48z"/>
			<path class="st2" d="M451.47,132.07l24.33,9.41c6.04,2.34,12.89,0.2,16.56-5.16l0.69-1.01l-34.01-14.31l39.54-34.2
				c8.06-6.98,9.52-18.99,3.36-27.72l-0.24-0.34l-52.04,50.77l-9.05-39.11l-5.73,1.5c-7.44,1.94-11.75,9.76-9.46,17.15l8.2,26.44
				l-32.45-10.77l2.68,6.7c2.63,6.58,8.15,11.55,14.93,13.46l7.05,1.98l-7.7,25.85c-3.14,10.53-11.61,18.58-22.23,21.11l0,0
				c-11.21,2.67-19.68,11.93-21.42,23.4l-1.84,12.11c-2,13.19-15.08,21.59-27.8,17.86l-58.32-17.13l66.25,35.59
				c13.22,7.1,29.46-0.96,31.93-15.85l1.87-11.3c1.74-10.53,9.19-19.2,19.29-22.44l12.85-4.12c9.37-3.01,16.74-10.38,19.79-19.8
				L451.47,132.07z"/>
		</g>
		<path class="st2" d="M363.26,234.26c0-98.39-51.8-178.15-115.69-178.15c-60.06,0-109.42,70.47-115.14,160.65h-0.56v221.6
			l38.51-35.25l22.94,50.36l37.14-43c4.52,1.03,9.13,1.67,13.81,1.87l29.44,36.42l42.59-47.6l39.98,37.2l2.55-155.17
			C361.72,267.64,363.26,251.23,363.26,234.26z"/>
		<ellipse id="tummy" class="st3" cx="247.57" cy="231.52" rx="100.62" ry="168.39"/>
		<g>
			<path class="st1" d="M314.55,4.49c9.15,8.5,14.88,20.66,14.88,34.19c0,17.73-9.86,33.14-24.36,40.98
				c5.27,4.65,10.29,9.93,14.99,15.77c19.72-5.28,34.24-23.38,34.24-44.9C354.31,27.03,337.01,7.61,314.55,4.49z"/>
			<path class="st1" d="M168.37,38.67c0-13.52,5.73-25.69,14.88-34.19c-22.46,3.13-39.76,22.54-39.76,46.03
				c0,20.73,13.48,38.29,32.1,44.27c4.87-5.97,10.06-11.34,15.52-16.05C177.5,70.65,168.37,55.73,168.37,38.67z"/>
		</g>
	</g>
	<g>
		<path class="st4" d="M159.25,185.34c0.75,4.28,1.92,8.44,3.46,12.43l0.34-0.08c0,0,19.94,31.61,46.98,43.12
			c14.09,6,27.9,7.27,40.65,5.96c18.11-1.85,34.1-8.92,45.78-15.06c29.48-15.52,39.81-60.41,39.81-60.41s0.71-0.54,1.66-1.33
			c-0.05-2.77-0.29-5.5-0.67-8.17c-5.56-38.43-44.24-67.42-90.57-66.17c-49.62,1.34-89.22,36.88-88.45,79.37
			C158.3,178.51,158.64,181.97,159.25,185.34z"/>
		<g>
			<g>
				<polygon class="st5" points="188.13,178.26 167.42,138.67 170.52,182.57 				"/>
				<polygon class="st6" points="185.26,178.74 170.15,152.52 171.5,181.97 				"/>
			</g>
			<g>
				<polygon class="st5" points="314.82,167.87 328.14,131.84 329.92,168.86 				"/>
				<polygon class="st6" points="317.27,167.77 326.84,144.53 328.34,168.47 				"/>
			</g>
			<path class="st0" d="M159.44,198.58l3.6-0.88c0,0,19.94,31.61,46.98,43.12c14.09,6,27.9,7.27,40.65,5.96
				c18.11-1.85,34.1-8.92,45.78-15.06c29.48-15.52,39.81-60.41,39.81-60.41s0.71-0.54,1.66-1.33c2.15-1.8,5.5-4.92,4.3-5.95
				c-0.98-0.85-2.67-1.59-4.98-2.23c-2.1-0.58-4.7-1.08-7.74-1.49c-0.17-0.02-0.35-0.05-0.53-0.07c-1.53-0.2-3.15-0.38-4.87-0.54
				c-0.45-0.03-0.9-0.07-1.35-0.11c-24.9-2.01-68.14,0.15-104.66,6.35c-11.68,1.98-22.67,4.37-32.15,7.17
				c-0.53,0.16-1.06,0.32-1.58,0.49c-2.53,0.77-4.94,1.57-7.23,2.4c-0.21,0.08-0.41,0.15-0.61,0.22c-7.35,2.73-13.3,5.76-17.28,9.11
				c-1.54,1.29-2.78,2.63-3.71,4.01C154.19,191.37,159.44,198.58,159.44,198.58z"/>
			<path class="st1" d="M159.44,198.58l3.6-0.88c0,0,19.94,31.61,46.98,43.12c14.09,6,27.9,7.27,40.65,5.96
				c13.9-2.94,26.14-8.49,35.57-13.45c29.48-15.52,39.81-60.4,39.81-60.4s7.68-5.79,5.96-7.27c-0.56-0.48-1.33-0.92-2.32-1.33
				c-0.18-0.07-0.37-0.15-0.57-0.22c-1.57-0.6-3.59-1.12-5.99-1.56c-0.45-0.08-0.91-0.17-1.39-0.24
				c-20.25-3.32-64.38-2.04-103.66,3.67c-11.68,1.98-22.67,4.37-32.15,7.17c-0.53,0.16-1.06,0.32-1.58,0.49
				c-2.53,0.77-4.94,1.57-7.23,2.4c-0.21,0.08-0.41,0.15-0.61,0.22c-7.35,2.73-13.3,5.76-17.28,9.11c-1.54,1.29-2.78,2.63-3.71,4.01
				C154.19,191.37,159.44,198.58,159.44,198.58z"/>
		</g>
	</g>
	<g>
		<path class="st0" d="M294.03,112.47c0,19.43-10.88,36.31-26.86,44.78c-6.98,3.72-14.94,5.82-23.37,5.82
			c-27.74,0-50.23-22.66-50.23-50.6s22.5-50.6,50.23-50.6c1.29,0,2.56,0.05,3.81,0.16C273.57,63.99,294.03,85.83,294.03,112.47z"/>
		<path class="st7" d="M287.4,111.42c0,20.68-14.76,37.99-34.6,42.57c-3.37,0.79-6.91,1.21-10.53,1.21
			c-24.9,0-45.11-19.59-45.11-43.78c0-23.15,18.5-42.11,41.92-43.69c1.04-0.07,2.12-0.12,3.19-0.12
			C267.19,67.61,287.4,87.23,287.4,111.42z"/>
		<path class="st6" d="M287.4,111.42c0,20.68-14.76,37.99-34.6,42.57c-18.78-7.3-32.08-25.66-32.08-47.18
			c0-15.75,7.14-29.82,18.36-39.08c1.04-0.07,2.12-0.12,3.19-0.12C267.19,67.61,287.4,87.23,287.4,111.42z"/>
		<path class="st8" d="M272.67,112.44c0,14.72-12.29,26.66-27.45,26.66c-15.16,0-27.46-11.94-27.46-26.66
			c0-14.72,12.29-26.66,27.46-26.66C260.37,85.78,272.67,97.71,272.67,112.44z"/>
		<ellipse class="st0" cx="245.21" cy="112.47" rx="18.65" ry="18.11"/>
		<path class="st6" d="M250.59,98.83c0,8.8-7.35,15.94-16.42,15.94s-16.42-7.14-16.42-15.94c0-8.8,7.35-15.94,16.42-15.94
			S250.59,90.02,250.59,98.83z"/>
	</g>
</g>
</svg>
