<?xml version="1.0" encoding="utf-8"?>
<!-- Generator: Adobe Illustrator 23.0.0, SVG Export Plug-In . SVG Version: 6.00 Build 0)  -->
<svg version="1.1" id="lazy_x5F_green" xmlns="http://www.w3.org/2000/svg" xmlns:xlink="http://www.w3.org/1999/xlink" x="0px"
	 y="0px" viewBox="0 0 271.7 311.62" style="enable-background:new 0 0 271.7 311.62;" xml:space="preserve">
<style type="text/css">
	.st0{fill-rule:evenodd;clip-rule:evenodd;fill:#E8DBDA;}
	.st1{fill-rule:evenodd;clip-rule:evenodd;fill:#DC7C27;}
	.st2{fill-rule:evenodd;clip-rule:evenodd;fill:#BB6128;}
	.st3{fill-rule:evenodd;clip-rule:evenodd;fill:#67913D;}
	.st4{fill-rule:evenodd;clip-rule:evenodd;fill:#7AC144;}
	.st5{fill-rule:evenodd;clip-rule:evenodd;fill:#532A12;}
	.st6{fill-rule:evenodd;clip-rule:evenodd;fill:#FFFFFF;}
	.st7{fill-rule:evenodd;clip-rule:evenodd;fill:#E6E6E5;}
</style>
<g id="lazy_x5F_green_1_">
	<path class="st0" d="M135.85,293.55c54.67,0,98.99,4.05,98.99,9.02c0,5.01-44.32,9.06-98.99,9.06c-54.68,0-98.99-4.05-98.99-9.06
		C36.86,297.59,81.18,293.55,135.85,293.55L135.85,293.55z"/>
	<path class="st1" d="M91.35,276.1h9.58v19.15v2.93v4.08H77.36c0,0,9.13-7.46,13.99-10.32V276.1z"/>
	<polygon class="st2" points="96.55,276.1 100.93,276.1 100.93,295.25 100.93,298.19 100.93,302.27 96.55,302.27 	"/>
	<path class="st2" d="M172.79,276.1h-9.58v19.15v2.93v4.08h23.57c0,0-9.13-7.46-13.99-10.32V276.1z"/>
	<polygon class="st1" points="167.59,276.1 163.21,276.1 163.21,295.25 163.21,298.19 163.21,302.27 167.59,302.27 	"/>
	<path class="st3" d="M25.72,59.55C0.93,92.99,0,132.71,0,132.71c6.76-5.23,13.47-10.43,20.19-15.67
		c-7.13,25.83-13.81,73.09,8.28,91.98c1.82-11.17,3.68-22.31,5.49-33.44c-2.93,52.6,56.31,136.08,82.63,97.21
		c8.98-13.29,15.1-29.36,19.26-47.21c4.19,17.85,10.32,33.93,19.27,47.21c26.31,38.87,85.56-44.62,82.62-97.21
		c1.82,11.13,3.68,22.27,5.5,33.44c22.12-18.89,15.41-66.14,8.28-91.98c6.72,5.23,13.48,10.43,20.19,15.67
		c0,0-0.93-39.72-25.68-73.16C187.19-19.85,84.52-19.85,25.72,59.55L25.72,59.55z"/>
	<path class="st4" d="M25.72,59.55C0.93,92.99,0,132.71,0,132.71c6.76-5.23,13.47-10.43,20.19-15.67
		c-7.13,25.83-13.81,73.09,8.28,91.98c1.82-11.17,3.68-22.31,5.49-33.44c-1.3,23.42,9.72,52.97,24.68,75.09
		c4.38,0.37,8.83,0.59,13.32,0.59c21.27,0,41.57-4.27,60.17-11.95c1.37-4.45,2.6-9.02,3.71-13.73c0.85,3.67,1.82,7.31,2.86,10.84
		c54.75-25.65,92.76-81.89,92.76-147.14c0-19.75-3.49-38.68-9.87-56.16C161.76-18.55,77.06-9.75,25.72,59.55L25.72,59.55z"/>
	<path class="st5" d="M182.73,64.97c9.21,0,16.67,7.46,16.67,16.63c0,9.2-7.46,16.67-16.67,16.67s-16.67-7.46-16.67-16.67
		C166.07,72.43,173.53,64.97,182.73,64.97L182.73,64.97z"/>
	<path class="st3" d="M199.21,84.12c0.15,0.78,0.19,1.63,0.19,2.49c0,9.2-7.46,16.66-16.67,16.66s-16.67-7.46-16.67-16.66
		c0-0.86,0.07-1.71,0.19-2.49c1.22,8.02,8.13,14.14,16.48,14.14C191.08,98.27,198.03,92.14,199.21,84.12L199.21,84.12z"/>
	<path id="eye_x5F_2" class="st6" d="M178.76,71.69c3.78,0,6.86,3.08,6.86,6.9c0,3.78-3.08,6.87-6.86,6.87
		c-3.82,0-6.91-3.08-6.91-6.87C171.86,74.77,174.94,71.69,178.76,71.69L178.76,71.69z"/>
	<path class="st5" d="M91.42,64.97c9.21,0,16.67,7.46,16.67,16.63c0,9.2-7.46,16.67-16.67,16.67c-9.2,0-16.67-7.46-16.67-16.67
		C74.76,72.43,82.22,64.97,91.42,64.97L91.42,64.97z"/>
	<path class="st3" d="M107.9,84.12c0.11,0.78,0.19,1.63,0.19,2.49c0,9.2-7.46,16.66-16.67,16.66c-9.2,0-16.67-7.46-16.67-16.66
		c0-0.86,0.07-1.71,0.19-2.49c1.23,8.02,8.13,14.14,16.48,14.14C99.78,98.27,106.71,92.14,107.9,84.12L107.9,84.12z"/>
	<path id="eye_x5F_1" class="st6" d="M87.41,71.69c3.82,0,6.91,3.08,6.91,6.9c0,3.78-3.08,6.87-6.91,6.87
		c-3.79,0-6.86-3.08-6.86-6.87C80.55,74.77,83.63,71.69,87.41,71.69L87.41,71.69z"/>
	<path class="st3" d="M137.86,132.23c32.74,0,59.31,0.75,59.31,1.67c0,0.93-26.58,1.67-59.31,1.67s-59.28-0.74-59.28-1.67
		C78.58,132.97,105.12,132.23,137.86,132.23L137.86,132.23z"/>
	<path class="st6" d="M102.52,133.9c0-1.97-8.24-23.46-8.24-23.46l-8.39,23.46H102.52z"/>
	<path class="st7" d="M102.52,133.9c0-1.97-8.24-23.46-8.24-23.46L93.8,133.9H102.52z"/>
	<path class="st6" d="M191.57,133.9c0-1.97-8.28-23.46-8.28-23.46l-8.35,23.46H191.57z"/>
	<path class="st7" d="M191.57,133.9c0-1.97-8.28-23.46-8.28-23.46l-0.48,23.46H191.57z"/>
</g>
</svg>
