<?xml version="1.0" encoding="utf-8"?>
<!-- Generator: Adobe Illustrator 22.1.0, SVG Export Plug-In . SVG Version: 6.00 Build 0)  -->
<svg version="1.1" id="orange_1_" xmlns="http://www.w3.org/2000/svg" xmlns:xlink="http://www.w3.org/1999/xlink" x="0px" y="0px"
	 viewBox="0 0 421.2 301" style="enable-background:new 0 0 421.2 301;" xml:space="preserve">
<style type="text/css">
	.st0{fill:#676767;}
	.st1{fill:#FAA727;}
	.st2{display:none;fill:#FDB835;}
	.st3{fill:#F05653;}
	.st4{fill:#FFFFFF;}
	.st5{fill:#7B1126;}
	.st6{fill:#DC7C27;}
	.st7{fill:#BB6128;}
	.st8{fill:#FDB835;}

#orange_1_:hover #wings:hover {fill: red;}

</style>
<g id="orange">
	<g id="wings">
		<path id="wings" class="st0" d="M275.5,50.7c0,0,43.7,23.3,66.2,14.1c22.6-9.2,7.8-64.8,7.8-64.8c46.8,3.4,87.9,49.3,65.5,114.1
			c0,0-3.8-28.1-27.1-44.3c15.1,45.1-8.4,66.5-8.4,66.5c-0.1-63.8-52.4-61-68.7-18.4L275.5,50.7z"/>
		<path id="wings" class="st0" d="M145.7,50.7c0,0-43.6,23.3-66.2,14.1C57,55.6,71.8,0,71.8,0C25,3.4-16.1,49.3,6.3,114.1
			c0,0,3.8-28.1,27.1-44.3c-15.1,45.1,8.4,66.5,8.4,66.5c0.1-63.8,52.4-61,68.7-18.4L145.7,50.7z"/>
	</g>
	<path class="st1" d="M159.5,294.5l-12,6.5l24.4-0.2c0.4-14.6-0.7-24.8,7.6-36.7c12.1,2.9,51.7,2.9,63.8,0c8.3,12,7.2,22.1,7.6,36.7
		l24.4,0.2l-12-6.5C476.7-75-49.3-74.4,159.5,294.5L159.5,294.5z"/>
	<path class="st2" d="M295.8,62.3C230.6-37.4,30.5,29.9,143.4,263.7c87.2-3.5,156.8-75.3,156.8-163.4
		C300.2,87.2,298.7,74.5,295.8,62.3L295.8,62.3z"/>
	<path class="st3" d="M269.5,162.1c0.6,3.4,0.9,6.9,0.9,10.4c0,32.1-26,58.1-58.1,58.1s-58.1-26-58.1-58.1c0-3.5,0.3-6.9,0.9-10.3
		c17.2,1.5,36.2,2.4,56.3,2.4C232.3,164.6,251.9,163.7,269.5,162.1L269.5,162.1z"/>
	<path class="st4" d="M161,162.7c6.6,0.5,13.4,0.9,20.5,1.2c-0.7,8.7-5,15.4-10.2,15.4C165.8,179.3,161.3,172,161,162.7L161,162.7z
		 M187.8,164.2c6.6,0.2,13.4,0.4,20.4,0.4c-0.9,8.3-5.1,14.7-10.2,14.7C192.9,179.3,188.6,172.7,187.8,164.2L187.8,164.2z
		 M214.5,164.6c6.9,0,13.7-0.2,20.4-0.4c-0.7,8.6-5,15.1-10.2,15.1C219.6,179.3,215.4,172.9,214.5,164.6L214.5,164.6z M241.2,163.9
		c7.1-0.3,13.9-0.7,20.5-1.2c-0.4,9.3-4.8,16.6-10.3,16.6C246.2,179.3,241.9,172.6,241.2,163.9L241.2,163.9z"/>
	<path class="st4" d="M204.9,64.3c17.7,0,32.1,14.3,32.1,32s-14.4,32-32.1,32c-17.6,0-32-14.3-32-32
		C172.8,78.7,187.2,64.3,204.9,64.3L204.9,64.3z"/>
	<path class="st0" d="M204.9,70.7c14.2,0,25.7,11.5,25.7,25.7s-11.5,25.7-25.7,25.7s-25.7-11.5-25.7-25.7
		C179.1,82.2,190.7,70.7,204.9,70.7L204.9,70.7z"/>
	<path class="st5" d="M204.9,78.3c10,0,18.1,8.1,18.1,18.1c0,9.9-8.1,18-18.1,18c-9.9,0-18-8.1-18-18
		C186.8,86.4,194.9,78.3,204.9,78.3L204.9,78.3z"/>
	<path class="st4" d="M199.7,81.5c4.3,0,7.8,3.5,7.8,7.8s-3.5,7.9-7.8,7.9s-7.9-3.5-7.9-7.9C191.8,85,195.4,81.5,199.7,81.5
		L199.7,81.5z"/>
	<polygon class="st6" points="127.1,196.7 118.9,246.9 103.3,252.8 102.4,276.1 108.6,257.4 110.3,280.6 117.3,258.7 118.9,272.8
		124.8,258 124.1,247.6 135.2,198.2 	"/>
	<polygon class="st7" points="118.1,265.5 118.9,272.8 124.8,258 124.1,247.6 135.2,198.2 130.6,197.3 121,247.9 120.6,261.4 	"/>
	<path class="st1" d="M144.1,195.1L144.1,195.1c-0.4,3-6.1,4.6-12.6,3.5c-6.5-1-11.4-4.2-11-7.1c0-0.2,0.1-0.4,0.2-0.6
		c3.3,1.7,7.6,3.1,12.5,3.8C137.1,195.3,140.9,195.4,144.1,195.1L144.1,195.1z"/>
	<polygon class="st6" points="298.7,196.7 307,246.9 322.6,252.8 323.4,276.1 317.3,257.4 315.6,280.6 308.6,258.7 307,272.8
		301.1,258 301.8,247.6 290.7,198.2 	"/>
	<polygon class="st7" points="307.8,265.5 307,272.8 301.1,258 301.8,247.6 290.7,198.2 295.3,197.3 304.8,247.9 305.3,261.4 	"/>
	<path class="st8" d="M281.8,195.1L281.8,195.1c0.5,3,6.1,4.6,12.7,3.5c6.5-1,11.4-4.2,11-7.1c0-0.2-0.1-0.4-0.2-0.6
		c-3.3,1.7-7.6,3.1-12.4,3.8C288.8,195.3,285,195.4,281.8,195.1L281.8,195.1z"/>
</g>
</svg>
