
<svg version="1.1" id="pink_1_" xmlns="http://www.w3.org/2000/svg" xmlns:xlink="http://www.w3.org/1999/xlink" x="0px" y="0px"
	 viewBox="0 0 254.56 370.1" style="enable-background:new 0 0 254.56 370.1;" xml:space="preserve">
<style type="text/css">
	.st0{display:none;fill-rule:evenodd;clip-rule:evenodd;fill:#E8DBDA;}
	.st1{fill-rule:evenodd;clip-rule:evenodd;fill:#DC7C27;}
	.st2{fill-rule:evenodd;clip-rule:evenodd;fill:#BB6128;}
	.st3{fill-rule:evenodd;clip-rule:evenodd;fill:#F4EED6;}
	.st4{fill-rule:evenodd;clip-rule:evenodd;fill:#EED9A4;}
	.st5{fill-rule:evenodd;clip-rule:evenodd;fill:#EE4492;}
	.st6{fill-rule:evenodd;clip-rule:evenodd;fill:#E44676;}
	.st7{fill-rule:evenodd;clip-rule:evenodd;fill:#FFFFFF;}
	.st8{fill-rule:evenodd;clip-rule:evenodd;fill:#676767;}
	.st9{fill-rule:evenodd;clip-rule:evenodd;fill:#7B1126;}
	.st10{fill-rule:evenodd;clip-rule:evenodd;fill:#2A2A2C;}
	.st11{fill-rule:evenodd;clip-rule:evenodd;fill:#F16E9C;}

#pink_1_:hover #teeth {fill: red;}

</style>
<g id="pink">
	<path class="st0" d="M123.13,359.38c59.61,0,107.92,4.41,107.92,9.83c0,5.46-48.31,9.87-107.92,9.87
		c-59.6,0-107.92-4.41-107.92-9.87C15.21,363.79,63.53,359.38,123.13,359.38L123.13,359.38z"/>
	<path class="st1" d="M102.13,318.06h19.02v38.12V362v8.1H74.29c0,0,18.13-14.81,27.84-20.52V318.06z"/>
	<polygon class="st2" points="112.45,318.06 121.15,318.06 121.15,356.18 121.15,362 121.15,370.1 112.45,370.1 	"/>
	<path class="st2" d="M152.43,318.06h-19.02v38.12V362v8.1h46.86c0,0-18.13-14.81-27.84-20.52V318.06z"/>
	<polygon class="st1" points="142.11,318.06 133.41,318.06 133.41,356.18 133.41,362 133.41,370.1 142.11,370.1 	"/>
	<polygon class="st3" points="73.04,77.78 92.86,64.62 22.7,0 47.18,93.68 	"/>
	<path class="st4" d="M73.04,77.78l19.83-13.15l-22.3-20.52c-7.53,5.06-14.49,11.33-20.6,18.78c-2.95,3.6-5.58,7.36-7.89,11.21
		l5.1,19.59L73.04,77.78z"/>
	<path class="st4" d="M67.61,41.36L63.97,38L38.52,60.5l1.38,5.34L67.61,41.36z M58.87,33.3l-2.91-2.67L34.55,45.4l1.05,3.96
		L58.87,33.3z M50.05,25.21l-2.91-2.71l-15.98,9.83l1.01,3.88L50.05,25.21z M40.06,15.98l-2.87-2.63l-8.86,8.13l1.09,4.25
		L40.06,15.98z M33.42,9.87L30.51,7.2l-5.02,3.48l1.05,3.97L33.42,9.87z"/>
	<polygon class="st3" points="181.52,77.78 161.69,64.62 231.86,0 207.38,93.68 	"/>
	<path class="st4" d="M181.52,77.78l-19.83-13.15l22.3-20.52c7.53,5.06,14.49,11.33,20.6,18.78c2.96,3.6,5.59,7.36,7.93,11.21
		l-5.14,19.59L181.52,77.78z"/>
	<path class="st4" d="M186.98,41.36l3.6-3.36l25.45,22.5l-1.38,5.34L186.98,41.36z M195.73,33.3l2.87-2.67L220,45.4l-1.05,3.96
		L195.73,33.3z M204.51,25.21l2.95-2.71l15.94,9.83l-1.01,3.88L204.51,25.21z M214.54,15.98l2.83-2.63l8.87,8.13l-1.09,4.25
		L214.54,15.98z M221.13,9.87l2.92-2.67l5.02,3.48l-1.01,3.97L221.13,9.87z"/>
	<path class="st5" d="M2.26,192.94c-31.76,179.83,281.83,179.83,250.03,0C215.23-16.71,39.33-16.71,2.26,192.94L2.26,192.94z"/>
	<path class="st6" d="M180.95,116.54c0.24,1.66,0.36,3.36,0.36,5.1c0,24.48-24.2,44.35-54.02,44.35
		c-29.86,0-54.06-19.87-54.06-44.35c0-1.74,0.12-3.44,0.37-5.1H180.95z"/>
	<path class="st7" d="M178.53,118.81c0.2,1.5,0.32,3.04,0.32,4.57c0,21.93-23.07,39.74-51.55,39.74c-28.49,0-51.59-17.8-51.59-39.74
		c0-1.54,0.12-3.08,0.32-4.57H178.53z"/>
	<path class="st8" d="M166.39,118.81c0.16,1.13,0.28,2.31,0.28,3.48c0,16.75-17.64,30.35-39.37,30.35
		c-21.77,0-39.37-13.6-39.37-30.35c0-1.17,0.08-2.35,0.24-3.48H166.39z"/>
	<path class="st9" d="M155.46,118.81c0.12,0.81,0.2,1.66,0.2,2.51c0,12.1-12.71,21.85-28.36,21.85c-15.7,0-28.41-9.75-28.41-21.85
		c0-0.85,0.08-1.7,0.2-2.51H155.46z"/>
	<path class="st7" d="M117.26,118.81c4.13,0,7.44,3.32,7.44,7.45c0,4.13-3.32,7.49-7.44,7.49c-4.13,0-7.45-3.36-7.45-7.49
		C109.82,122.12,113.14,118.81,117.26,118.81L117.26,118.81z"/>
	<path class="st6" d="M127.3,178.33c52.85,0,95.7,0.85,95.7,1.94c0,1.05-42.85,1.9-95.7,1.9c-52.88,0-95.74-0.85-95.74-1.9
		C31.56,179.18,74.41,178.33,127.3,178.33L127.3,178.33z"/>
	<polygon id="teeth" class="st7" points="39.21,179.75 51.31,218.92 61.18,190.67 79.99,235.63 103.55,191.97 117.71,218.51
		130.13,191.97 147.65,221.95 165.66,190.23 180.23,228.79 199.93,186.83 213.61,201.4 219.96,180.23 	"/>
	<path class="st6" d="M127.3,70.45c27.15,0,49.16,0.93,49.16,2.06c0,1.09-22.01,2.02-49.16,2.02c-27.19,0-49.2-0.93-49.2-2.02
		C78.1,71.38,100.11,70.45,127.3,70.45L127.3,70.45z"/>
	<path class="st6" d="M127.3,80.77c27.15,0,49.16,0.89,49.16,2.02c0,1.13-22.01,2.02-49.16,2.02c-27.19,0-49.2-0.89-49.2-2.02
		C78.1,81.66,100.11,80.77,127.3,80.77L127.3,80.77z"/>
	<polygon class="st8" points="37.71,257.73 37.22,311.62 21.85,320.28 24.72,344.81 28.08,324.25 33.63,348.29 37.47,324.25
		41.31,338.7 45.2,322.31 42.77,311.5 46.37,258.09 	"/>
	<polygon class="st10" points="39.33,331.21 41.31,338.7 45.2,322.31 42.77,311.5 46.37,258.09 41.43,257.89 39.61,312.31
		41.35,326.48 	"/>
	<path class="st5" d="M55.19,253.36v0.08c0,3.16-5.67,5.71-12.63,5.71c-6.96,0-12.62-2.55-12.62-5.71c0-0.24,0.04-0.48,0.08-0.69
		c3.72,1.25,8.46,2.02,13.64,2.02C47.91,254.77,51.87,254.25,55.19,253.36L55.19,253.36z"/>
	<polygon class="st10" points="216.89,257.73 217.33,311.62 232.75,320.28 229.88,344.81 226.48,324.25 220.97,348.29
		217.13,324.25 213.24,338.7 209.4,322.31 211.83,311.5 208.23,258.09 	"/>
	<polygon class="st8" points="215.27,331.21 213.24,338.7 209.4,322.31 211.83,311.5 208.23,258.09 213.17,257.89 214.95,312.31
		213.24,326.48 	"/>
	<path class="st11" d="M199.41,253.36v0.08c0,3.16,5.62,5.71,12.62,5.71c6.96,0,12.62-2.55,12.62-5.71c0-0.24-0.04-0.48-0.08-0.69
		c-3.72,1.25-8.46,2.02-13.64,2.02C206.69,254.77,202.72,254.25,199.41,253.36L199.41,253.36z"/>
</g>
</svg>
