<?xml version="1.0" encoding="utf-8"?>
<!-- Generator: Adobe Illustrator 23.0.0, SVG Export Plug-In . SVG Version: 6.00 Build 0)  -->
<svg version="1.1" id="red" xmlns="http://www.w3.org/2000/svg" xmlns:xlink="http://www.w3.org/1999/xlink" x="0px" y="0px"
	 viewBox="0 0 601 652.46" style="enable-background:new 0 0 601 652.46;" xml:space="preserve">
<style type="text/css">
	.st0{fill:#BB2027;}
	.st1{fill:#4A1416;}
	.st2{fill:#FFFFFF;}
	.st3{fill:#E4849F;}
	.st4{fill:#F8D7DB;}
	.st5{fill:#E84753;}
	.st6{fill:#751116;}
	.st7{fill:#F3BCC2;}
</style>
<g id="red_1_">
	<path class="st0" d="M0.53,165.49l5.49-22l1.51,17.19c0.75,8.44,7.47,15.12,15.92,15.82l26.1,2.14l-16.61-25.83
		c-5.22-8.14-5.54-18.52-0.82-26.96l3.03-5.42c4.74-8.47,13.78-13.64,23.49-13.41l8.22,0.18l-7.77,3.16
		c-3.23,1.31-6.13,3.23-8.56,5.64c-2.44,2.41-4.39,5.29-5.74,8.5c-3.62,8.64-2.36,18.53,3.3,25.98l12.07,15.87v-29.75
		c0-5.32,1.71-10.51,4.87-14.8l6.5-8.81c3.8-5.16,9.44-8.66,15.75-9.76l0.47-0.08c7.58-1.32,15.37,0.94,21.06,6.11l9.38,8.54
		l-7.1-3.48c-3.43-1.69-7.2-2.54-10.98-2.54c-1.69,0-3.4,0.17-5.09,0.52c-6.6,1.37-12.34,5.36-15.96,11.05l-4.34,6.85
		c-2.93,4.64-4.27,10.1-3.78,15.55l2.61,29.25l6.83-21.58c1.36-4.29,4.05-8.02,7.68-10.65l9.44-6.85c3.62-2.63,7.92-4,12.32-4
		c1.27,0,2.54,0.12,3.82,0.35c4.05,0.75,7.8,2.68,10.77,5.54l12.19,11.8l-10.48-4.96c-6.04-2.85-13.08-2.66-18.94,0.52l-3.77,2.03
		c-4.84,2.61-8.46,7.03-10.08,12.29l-10.87,35.33l27.89,4.34c8.22,1.27,16.44-2.21,21.25-8.99l4.99-7.07l-5.32,15.72
		c-3.85,11.39-16.14,17.53-27.56,13.78l-16.78-5.51l-8.54,52.05c-2.01,12.19,1.91,24.59,10.53,33.44l20.26,20.78
		c20.33-59.5,63.07-66.03,122.29-88.69c3.75-1.44,7.42-2.74,11.02-3.93c-3.13-31.31,0.28-60.76,16.66-86.54
		c-12.89-12.93-21.13-32.62-21.13-54.69C238.04,40.58,263.71,9,295.38,9s57.33,31.58,57.33,70.54c0,30.94-16.19,57.2-38.72,66.71
		c-13.99,22.04-18.49,43.72-12.53,65.01c58.17,2.98,85,50.47,87.48,111.58l52.72-5.32c12.29-1.24,23.25-8.24,29.55-18.87
		l26.89-45.38l-16.4-6.55c-11.16-4.46-16.63-17.07-12.28-28.27l6.02-15.47l-0.71,8.63c-0.68,8.28,3.39,16.23,10.5,20.52l24.17,14.6
		l14.36-34.06c2.14-5.07,2.2-10.78,0.17-15.89l-1.58-3.97c-2.46-6.2-7.73-10.87-14.19-12.56l-11.22-2.94l16.92-1.2
		c4.11-0.29,8.22,0.63,11.81,2.66c5,2.83,8.63,7.58,10.03,13.16l2.84,11.31c1.09,4.36,0.76,8.95-0.95,13.1l-8.62,20.94l20.78-20.75
		c3.88-3.87,6.37-8.92,7.1-14.35l1.07-8.04c0.89-6.68-0.96-13.43-5.13-18.71l0,0c-3.44-4.36-8.23-7.45-13.62-8.78l-7.68-1.89
		l12.67-0.51c7.7-0.31,15.1,2.95,20.07,8.85l0.3,0.36c4.13,4.9,6.21,11.2,5.82,17.59l-0.67,10.93c-0.33,5.32-2.35,10.39-5.77,14.47
		l-19.11,22.8l19.44-4.42c9.12-2.07,16.45-8.85,19.22-17.78h0c2.07-6.66,1.39-13.88-1.87-20.04l-3.92-7.4l6.42,5.13
		c7.58,6.06,11.2,15.82,9.39,25.35l-1.16,6.11c-1.8,9.51-8.71,17.25-17.95,20.13l-29.32,9.13l21.4,15.13
		c6.92,4.89,16.36,4.09,22.35-1.91l12.2-12.21l-9.91,20.4c-4.03,8.3-13.84,12-22.36,8.45l-33.37-13.94l-52.31,70.45
		c-6.39,8.61-16.05,14.19-26.7,15.44l-69.3,8.1c-2.81,23.04-8.44,46.91-16.59,70.28c-20.86,59.84-34.26,108.27-62.01,137
		c0,0,0,0,0,0l13.18,21.38c1.25,2.02,3.3,3.41,5.64,3.81l49.59,8.5c3.39,0.58,6.37,2.58,8.19,5.5l0,0
		c2.53,4.05,2.64,9.17,0.29,13.33l-8.18,14.46v-10.91c0-3.3-1.63-6.39-4.36-8.25l-7.92-5.4l2.14,5.36c2.81,7.01,1.54,15-3.3,20.8
		l-3.31,3.98v-12.1c0-0.85-0.22-1.68-0.63-2.42l-4.95-8.92v7.83c0,5.03-1.79,9.9-5.06,13.74l-7.78,9.13v-7.32
		c0-3.66-2.97-6.63-6.63-6.63h-34.58c-6.02,0-11.49-3.48-14.05-8.93l6.05-13.3c1.44-3.16,1.05-6.85-1.01-9.63L281,592.08
		c-13.51,6.09-29.68,9.32-49.51,9.32c-19.48,0-36.84-3.35-52.11-9.66l-11.02,14.9c-2.06,2.79-2.45,6.48-1.01,9.63l6.05,13.3
		c-2.55,5.45-8.03,8.93-14.05,8.93h-34.58c-3.66,0-6.63,2.97-6.63,6.63v7.32l-7.78-9.13c-3.26-3.83-5.06-8.7-5.06-13.74v-7.83
		l-4.95,8.92c-0.41,0.74-0.63,1.58-0.63,2.42v12.1l-3.31-3.98c-4.84-5.8-6.1-13.79-3.3-20.8l2.14-5.36l-7.92,5.4
		c-2.73,1.86-4.36,4.95-4.36,8.25v10.91l-8.18-14.46c-2.35-4.16-2.24-9.28,0.29-13.33c1.82-2.92,4.8-4.91,8.19-5.5l49.59-8.5
		c2.34-0.4,4.39-1.79,5.64-3.81l12.07-19.58c-36.53-30.14-54.71-83.56-54.71-149.69c0-23.72,1.02-44.1,3-61.68l-46.71-49.44
		c-7.37-7.8-11.18-18.28-10.55-28.98l5.16-87.6l-34.54-10.75C3.42,183.59-1.72,174.45,0.53,165.49z"/>
	<g>
		<path class="st1" d="M160.62,432.7c24.04-16.27,58.58-26.45,96.96-26.45c32.03,0,61.38,7.08,84.18,18.89
			c1.32-31.78,4.35-67.54,10.95-94.13c9.17-22.57,1.88-56.84-28.19-63.77c-0.28,26.32-11.8,47.52-25.97,47.52
			c-11.89,0-21.9-14.9-25-35.24c-3.08,20.34-13.09,35.24-24.98,35.24c-13.7,0-24.93-19.82-25.9-44.94
			c-45.24,21.01-62.32,75.64-61.5,151.6C160.92,425.23,160.73,429,160.62,432.7z"/>
		<path class="st2" d="M159.48,438.3c-1.29,0.88-3.04-0.08-2.99-1.65l0.13-4.08c0.12-3.67,0.3-7.44,0.55-11.2c0-0.04,0-0.08,0-0.13
			c-0.87-83.99,20-134.71,63.81-155.06l2.84-1.32c1.24-0.58,2.67,0.3,2.72,1.66l0.12,3.13c0.88,22.66,10.7,41.09,21.9,41.09
			c9.39,0,18.23-13.39,21.02-31.84l2.06-13.58c0.33-2.17,3.46-2.17,3.79,0l2.07,13.58c2.81,18.45,11.66,31.85,21.04,31.85
			c11.65,0,21.71-19.95,21.97-43.56l0.03-2.59c0.01-1.22,1.15-2.12,2.34-1.84l2.53,0.58c12.89,2.97,22.92,10.75,29.03,22.5
			c7.08,13.62,7.9,31.75,2.13,46.29c-0.03,0.07-0.05,0.15-0.07,0.23c-5.49,22.31-9.1,53.58-10.74,92.94l-0.14,3.27
			c-0.06,1.4-1.55,2.26-2.79,1.62l-2.91-1.5c-22.97-11.89-52.21-18.44-82.34-18.44c-36,0-70.52,9.39-94.71,25.77L159.48,438.3z
			 M219.45,278.95c-0.19-1.36-1.71-2.08-2.89-1.37c-35.37,21.3-52.2,68.48-51.39,143.8l0,0.15l-0.01,0.15c0,0.01,0,0.02,0,0.04
			c-0.1,1.5,1.51,2.52,2.83,1.79c24.56-13.6,56.53-21.26,89.59-21.26c27.96,0,55.25,5.45,77.9,15.45c1.23,0.54,2.63-0.31,2.69-1.65
			c1.83-35.96,5.41-64.86,10.65-86l0.18-0.54c5.09-12.53,4.44-28.22-1.66-39.98c-2.79-5.38-7.81-12-16.57-15.99
			c-1.18-0.54-2.54,0.27-2.66,1.56c-2.37,25.02-14.59,43.65-29.56,43.65c-9.37,0-17.75-7.17-23.26-19.01
			c-0.68-1.47-2.77-1.47-3.46,0c-5.5,11.84-13.88,19.01-23.26,19.01C234.37,318.75,222.63,302.17,219.45,278.95z"/>
	</g>
	<g>
		<path id="tounge" class="st3" d="M162.19,477.07c3.72,28.85,25.93,51.27,53.46,56.41c-0.12-1.59-0.18-3.2-0.18-4.84
			c0-21.15,10.05-38.29,22.44-38.29c10.35,0,19.07,11.94,21.66,28.18c0.89-19.74,10.55-35.29,22.35-35.29
			c11.4,0,20.79,14.47,22.25,33.22c22.08-11.55,36.4-34.44,36.73-59.87c0.13-9.61,0.39-20.27,0.85-31.44
			c-22.8-11.8-52.15-18.89-84.18-18.89c-38.37,0-72.91,10.18-96.96,26.45C160.01,448.84,160.47,463.72,162.19,477.07z"/>
		<path class="st2" d="M264.56,518.75c-0.27,6.01-8.98,6.51-9.93,0.56l0,0c-2.22-13.89-9.25-23.97-16.73-23.97
			c-8.25,0-17.44,13.67-17.44,33.29c0,1.45,0.06,2.91,0.17,4.47l0,0c0.24,3.27-2.68,5.88-5.9,5.28h0
			c-30.45-5.69-53.56-30.07-57.5-60.68v0c-1.7-13.14-2.24-28.35-1.61-45.2v0c0.06-1.59,0.87-3.06,2.19-3.95l0,0
			c25.64-17.36,62-27.31,99.76-27.31c31.54,0,62.25,6.91,86.48,19.45h0c1.73,0.89,2.78,2.71,2.7,4.65v0
			c-0.42,9.92-0.69,20.16-0.85,31.3c-0.36,27.09-15.46,51.7-39.42,64.23l0,0c-3.18,1.66-7.02-0.47-7.3-4.04l0,0
			c-1.25-16.04-8.83-28.6-17.27-28.6C273.1,488.23,265.32,501.92,264.56,518.75L264.56,518.75z M167.89,433.97
			c-1.46,0.89-2.4,2.45-2.44,4.17c-0.32,14.2,0.24,27.07,1.69,38.29v0c2.82,21.89,17.06,40.07,36.85,48.37
			c3.07,1.29,6.53-0.73,6.9-4.04c2.28-20.39,13.32-35.42,27-35.42c5.89,0,11.32,2.75,15.78,7.59c2.3,2.5,6.31,2,8.03-0.93
			c5-8.53,12.17-13.77,20.21-13.77c10.64,0,19.77,9.08,24.34,22.97c1.14,3.46,5.38,4.63,8.11,2.22
			c13.31-11.71,21.29-28.66,21.53-46.91c0.12-8.82,0.32-17.07,0.61-25.06c0.07-2.04-1.1-3.9-2.96-4.75
			c-21.84-9.99-48.53-15.45-75.98-15.45C223.93,411.25,191.61,419.48,167.89,433.97z"/>
	</g>
	<g>
		<path class="st0" d="M394.41,87.42c0,33.56-18.93,62.74-46.75,77.38c-12.14,6.43-26.01,10.05-40.68,10.05
			c-48.27,0-87.42-39.15-87.42-87.42C219.56,39.15,258.71,0,306.99,0c2.25,0,4.46,0.08,6.63,0.28
			C358.8,3.66,394.41,41.4,394.41,87.42z"/>
		<path class="st4" d="M382.88,85.62c0,35.73-25.68,65.64-60.21,73.56c-5.87,1.37-12.02,2.09-18.33,2.09
			c-43.33,0-78.5-33.84-78.5-75.65c0-39.99,32.2-72.75,72.95-75.49c1.81-0.12,3.7-0.2,5.55-0.2
			C347.71,9.93,382.88,43.81,382.88,85.62z"/>
		<path class="st2" d="M382.88,85.62c0,35.73-25.68,65.64-60.21,73.56c-32.68-12.62-55.83-44.33-55.83-81.51
			c0-27.21,12.42-51.53,31.95-67.53c1.81-0.12,3.7-0.2,5.55-0.2C347.71,9.93,382.88,43.81,382.88,85.62z"/>
		<path class="st5" d="M357.23,87.37c0,25.44-21.39,46.06-47.78,46.06c-26.39,0-47.78-20.62-47.78-46.06s21.39-46.06,47.78-46.06
			C335.84,41.31,357.23,61.93,357.23,87.37z"/>
		<path class="st6" d="M341.91,87.42c0,17.28-14.53,31.29-32.46,31.29c-17.93,0-32.46-14.01-32.46-31.29
			c0-17.28,14.53-31.29,32.46-31.29C327.38,56.13,341.91,70.14,341.91,87.42z"/>
		<path class="st2" d="M318.8,63.85c0,15.21-12.79,27.54-28.57,27.54c-15.78,0-28.57-12.33-28.57-27.54
			c0-15.21,12.79-27.54,28.57-27.54C306.01,36.31,318.8,48.64,318.8,63.85z"/>
	</g>
	<g>
		<path class="st7" d="M273.55,279.51c3.1,20.34,13.11,35.24,25,35.24c14.16,0,25.68-21.2,25.97-47.52c-1.89-0.47-3.88-0.79-5.96-1
			c-16.16-3.67-30.86-5.59-44.2-5.89c0.13,1.93,0.2,3.9,0.2,5.89C274.55,270.83,274.2,275.29,273.55,279.51z"/>
		<path class="st7" d="M222.67,269.81c0.97,25.11,12.21,44.94,25.9,44.94c11.89,0,21.9-14.9,24.98-35.24
			c-0.64-4.22-0.99-8.67-0.99-13.28c0-2.01,0.07-3.98,0.2-5.93C253.19,260.03,236.6,263.33,222.67,269.81z"/>
		<path class="st7" d="M260.35,528.64c0,0.6,0,1.21-0.03,1.81c12.39-2.65,24.36-6.31,35.13-10.16c3.03-1.09,5.94-2.36,8.72-3.83
			c-1.46-18.75-10.85-33.22-22.25-33.22c-11.8,0-21.46,15.55-22.35,35.29C260.09,521.74,260.35,525.14,260.35,528.64z"/>
		<path class="st7" d="M215.47,528.64c0,1.64,0.07,3.25,0.18,4.84c5.04,0.94,10.26,1.31,15.57,1.02c9.63-0.5,19.37-1.96,28.88-4
			c-0.4-2.88-0.62-5.88-0.62-8.97c0-1,0.02-2.01,0.08-3c-2.6-16.24-11.32-28.18-21.66-28.18
			C225.51,490.35,215.47,507.49,215.47,528.64z"/>
	</g>
</g>
</svg>
