<?xml version="1.0" encoding="utf-8"?>
<!-- Generator: Adobe Illustrator 23.0.0, SVG Export Plug-In . SVG Version: 6.00 Build 0)  -->
<svg version="1.1" id="round_1_" xmlns="http://www.w3.org/2000/svg" xmlns:xlink="http://www.w3.org/1999/xlink" x="0px" y="0px"
	 viewBox="0 0 259.2 290.44" style="enable-background:new 0 0 259.2 290.44;" xml:space="preserve">
<style type="text/css">
	.st0{fill-rule:evenodd;clip-rule:evenodd;fill:#4D6E5F;}
	.st1{display:none;fill-rule:evenodd;clip-rule:evenodd;fill:#5D9589;}
	.st2{fill-rule:evenodd;clip-rule:evenodd;fill:#F05653;}
	.st3{fill-rule:evenodd;clip-rule:evenodd;fill:#F58670;}
	.st4{fill-rule:evenodd;clip-rule:evenodd;fill:#FFFFFF;}
	.st5{fill-rule:evenodd;clip-rule:evenodd;fill:#E6E6E5;}
	.st6{fill-rule:evenodd;clip-rule:evenodd;fill:#2E2E2C;}

#round_1_:hover #mouth {fill: red;}


</style>
<g id="round">
	<path class="st0" d="M129.6,0c71.6,0,129.6,58.04,129.6,129.61c0,29.88-10.09,57.4-27.08,79.34c13.08,4.23,22.58,16.55,22.58,31.08
		c0,18.07-14.64,32.71-32.67,32.71c-9.29,0-17.63-3.87-23.62-10.05c-0.04,13.01-10.61,23.58-23.61,23.58
		c-9.21,0-17.19-5.27-21.1-12.96c-3.15,1.28-6.54,1.95-10.13,1.95c-4.67,0-9.01-1.16-12.84-3.19
		c-2.95,10.13-12.37,17.55-23.49,17.55c-8.14,0-15.36-3.99-19.82-10.13c-6.18,6.74-15.04,10.97-24.89,10.97
		c-18.67,0-33.79-15.12-33.79-33.75c0-12.25,6.5-22.98,16.27-28.92C17.47,204,0,168.86,0,129.61C0,58.04,58.04,0,129.6,0L129.6,0z"
		/>
	<path class="st1" d="M129.6,0c26.88,0,51.9,8.18,72.6,22.22c12.68,23.61,19.9,50.62,19.9,79.3c0,92.63-75.07,167.7-167.7,167.7
		c-8.14,0-16.11-0.56-23.89-1.68c-1.16-3.43-1.79-7.06-1.79-10.85c0-12.25,6.5-22.98,16.27-28.92C17.47,204,0,168.86,0,129.61
		C0,58.04,58.04,0,129.6,0L129.6,0z"/>
	<path id="mouth" class="st2" d="M54.13,125.42c-17.27-101.52,175.67-101.52,158.4,0C196.93,217.01,69.73,217.01,54.13,125.42
		L54.13,125.42z"/>
	<path class="st3" d="M149.59,192.51c-12.25,2.43-25.01,2.08-37.1-1.08c-11.05-6.62-18.47-18.71-18.47-32.55
		c0-20.94,16.99-37.94,37.98-37.94c20.94,0,37.94,16.99,37.94,37.94C169.93,173.48,161.67,186.17,149.59,192.51L149.59,192.51z"/>
	<path class="st4" d="M179.46,179.87c-27.05,18.83-64.42,18.99-91.63,0.44c2.43-3.83,6.14-6.26,10.29-6.26
		c5.19,0,9.73,3.87,11.89,9.49c2.15-5.62,6.66-9.49,11.89-9.49c5.23,0,9.73,3.87,11.89,9.49c2.15-5.62,6.7-9.49,11.89-9.49
		c5.23,0,9.73,3.87,11.93,9.49c2.15-5.62,6.66-9.49,11.89-9.49C173.48,174.04,177.03,176.28,179.46,179.87L179.46,179.87z"/>
	<path class="st5" d="M179.46,179.87c-27.05,18.83-64.42,18.99-91.63,0.44c0.36-0.56,0.72-1.08,1.12-1.56
		c26.69,16.87,62.79,16.71,89.35-0.4C178.71,178.83,179.1,179.31,179.46,179.87L179.46,179.87z"/>
	<path class="st4" d="M74.31,68.05c30.72-25.01,87.08-25.05,117.87-0.12c-3.11,5.15-7.94,8.46-13.4,8.46
		c-6.66,0-12.45-4.95-15.2-12.09c-2.75,7.14-8.5,12.09-15.16,12.09c-6.66,0-12.45-4.95-15.2-12.09c-2.75,7.14-8.54,12.09-15.2,12.09
		c-6.66,0-12.41-4.95-15.2-12.09c-2.75,7.14-8.5,12.09-15.16,12.09C82.25,76.39,77.43,73.12,74.31,68.05L74.31,68.05z"/>
	<path class="st5" d="M74.31,68.05c30.72-25.01,87.08-25.05,117.87-0.12c-0.52,0.84-1.04,1.64-1.64,2.35
		c-30.56-22.3-84.09-22.3-114.56,0.08C75.39,69.65,74.83,68.89,74.31,68.05L74.31,68.05z"/>
	<path class="st6" d="M197.85,25.29c-18.71,2.11-34.5,6.86-46.83,14.76c0,0,8.65-13.88,21.66-16.71
		C185.73,20.54,197.85,25.29,197.85,25.29L197.85,25.29z"/>
	<path class="st6" d="M65.5,25.29c18.71,2.11,34.5,6.86,46.83,14.76c0,0-8.65-13.88-21.66-16.71C77.67,20.54,65.5,25.29,65.5,25.29
		L65.5,25.29z"/>
</g>
</svg>
