<?xml version="1.0" encoding="utf-8"?>
<!-- Generator: Adobe Illustrator 23.0.4, SVG Export Plug-In . SVG Version: 6.00 Build 0)  -->
<svg version="1.1" id="sky" xmlns="http://www.w3.org/2000/svg" xmlns:xlink="http://www.w3.org/1999/xlink" x="0px" y="0px"
	 viewBox="0 0 520.9 374.1" style="enable-background:new 0 0 520.9 374.1;" xml:space="preserve">
<style type="text/css">
	.st0{fill:#31606D;}
	.st1{fill:#75BEBE;}
	.st2{fill:#A7CCC4;}
	.st3{fill:#D9EEEA;}
	.st4{fill:#FFFFFF;}
	.st5{fill:#72BFBF;}
	.st6{fill:#374C4D;}
	.st7{opacity:0.55;fill:#E0ECF7;enable-background:new    ;}
	.st8{fill:#32606D;}


#sky:hover #hair_1_ {fill: red;}


</style>
<g id="sky_1_">
	<g>
		<g>
			<path class="st0" d="M244.4,314.8l-2.2,44.1c-0.3,5.9-5.2,10.5-11.1,10.5h-2.9c-0.7,0-1.4,0-2.1-0.1l-17.3-2.4
				c-1.8-0.2-3.6-0.3-5.4-0.1l-10.7,1.1c-0.5,0-1,0-1.5-0.1c-1.4-2.5-3.5-5.6-4.2-8.1c0.4-1.6,1.2-3.1,2.4-4.2c0.6-0.5,1.2-1,2-1.4
				l16.9-8.4l-1-34l35.2,2.9L244.4,314.8z"/>
			<path class="st1" d="M244.4,314.8l-2.2,44.1c-0.3,5.9-5.2,10.5-11.1,10.5h-2.9c-0.7,0-1.4,0-2.1-0.1l-17.3-2.4
				c-1.8-0.2-3.6-0.3-5.4-0.1l-10.7,1.1c-0.5,0-1,0-1.5-0.1c-1.4-2.5-3.5-5.6-4.2-8.1c0.4-1.6,1.2-3.1,2.4-4.2l23.5-5.2l-1-34.1
				l30.6-1.7L244.4,314.8z"/>
			<path class="st0" d="M193.3,364.9c0,5-4.1,9.1-9.1,9.1c-5,0-9.1-4.1-9.1-9.1c0-5,4.1-9.1,9.1-9.1
				C189.2,355.8,193.3,359.9,193.3,364.9z"/>
			<ellipse class="st1" cx="184.8" cy="364.9" rx="6.8" ry="6.8"/>
			<path class="st0" d="M204.7,363.9c0,5.7-4.6,10.2-10.2,10.2s-10.2-4.6-10.2-10.2s4.6-10.2,10.2-10.2S204.7,358.2,204.7,363.9z"/>
			<path class="st1" d="M201.9,363.9c0,4.1-3.4,7.5-7.5,7.5s-7.5-3.4-7.5-7.5c0-4.1,3.4-7.5,7.5-7.5S201.9,359.8,201.9,363.9z"/>
			<path class="st0" d="M223.5,361.5c0,6.6-5.4,12-12,12c-6.6,0-12-5.4-12-12c0-6.6,5.4-12,12-12
				C218.1,349.5,223.5,354.9,223.5,361.5z"/>
			<path class="st1" d="M220.3,361.5c0,4.9-3.9,8.8-8.8,8.8s-8.8-3.9-8.8-8.8s3.9-8.8,8.8-8.8C216.3,352.7,220.3,356.7,220.3,361.5z
				"/>
			<path class="st0" d="M250.1,358c0,8.6-6.9,15.5-15.5,15.5s-15.5-6.9-15.5-15.5s6.9-15.5,15.5-15.5S250.1,349.5,250.1,358z"/>
			<path class="st1" d="M245.9,358c0,6.3-5.1,11.3-11.3,11.3s-11.3-5.1-11.3-11.3s5.1-11.3,11.3-11.3
				C240.8,346.7,245.9,351.8,245.9,358z"/>
		</g>
		<g>
			<path class="st0" d="M268.5,314.8l2.2,44.1c0.3,5.9,5.2,10.5,11.1,10.5h2.9c0.7,0,1.4,0,2.1-0.1l17.3-2.4
				c1.8-0.2,3.6-0.3,5.4-0.1l10.7,1.1c0.5,0,1,0,1.5-0.1c1.4-2.5,3.5-5.6,4.2-8.1c-0.4-1.6-1.2-3.1-2.4-4.2c-0.6-0.5-1.2-1-2-1.4
				l-16.9-8.4l1-34l-35.2,2.9L268.5,314.8z"/>
			<path class="st1" d="M268.5,314.8l2.2,44.1c0.3,5.9,5.2,10.5,11.1,10.5h2.9c0.7,0,1.4,0,2.1-0.1l17.3-2.4
				c1.8-0.2,3.6-0.3,5.4-0.1l10.7,1.1c0.5,0,1,0,1.5-0.1c1.4-2.5,3.5-5.6,4.2-8.1c-0.4-1.6-1.2-3.1-2.4-4.2l-23.5-5.2l1-34.1
				l-30.6-1.7L268.5,314.8z"/>
			<ellipse class="st0" cx="328.8" cy="364.9" rx="9.1" ry="9.1"/>
			<path class="st1" d="M321.4,364.9c0,3.8,3.1,6.9,6.9,6.9s6.9-3.1,6.9-6.9s-3.1-6.9-6.9-6.9S321.4,361.1,321.4,364.9z"/>
			<path class="st0" d="M308.3,363.9c0,5.7,4.6,10.2,10.2,10.2s10.2-4.6,10.2-10.2s-4.6-10.2-10.2-10.2
				C312.9,353.7,308.3,358.2,308.3,363.9z"/>
			<path class="st1" d="M311.1,363.9c0,4.1,3.4,7.5,7.5,7.5c4.1,0,7.5-3.4,7.5-7.5c0-4.1-3.4-7.5-7.5-7.5S311.1,359.8,311.1,363.9z"
				/>
			<path class="st0" d="M289.5,361.5c0,6.6,5.4,12,12,12c6.6,0,12-5.4,12-12c0-6.6-5.4-12-12-12
				C294.9,349.5,289.5,354.9,289.5,361.5z"/>
			<path class="st1" d="M292.7,361.5c0,4.9,3.9,8.8,8.8,8.8s8.8-3.9,8.8-8.8s-3.9-8.8-8.8-8.8C296.6,352.7,292.7,356.7,292.7,361.5z
				"/>
			<path class="st0" d="M262.9,358c0,8.6,6.9,15.5,15.5,15.5s15.5-6.9,15.5-15.5s-6.9-15.5-15.5-15.5S262.9,349.5,262.9,358z"/>
			<path class="st1" d="M267.1,358c0,6.3,5.1,11.3,11.3,11.3s11.3-5.1,11.3-11.3s-5.1-11.3-11.3-11.3
				C272.2,346.7,267.1,351.8,267.1,358z"/>
		</g>
	</g>
	<path class="st1" d="M55.2,149.8l-15.7,18.4c-3.5,4.1-9.5,5.3-14.3,2.7l-16-8.5l18.5,0c3.9,0,7.5-1.9,9.7-5.1l7-10.5L28,133.6
		c-1.6-1.3-3.6-1.7-5.6-1.2l-10.1,2.8c-3.5,1-6.2,3.8-7.1,7.3l-2.7,11.3l-1-18.2c-0.3-5.2,3.5-9.8,8.7-10.5l11.2-1.5
		c1.5-0.2,3,0.2,4.3,1l16.6,7.9l-10.6-18.3c-1.5-2.7-4.5-4.1-7.6-3.7L7.3,113c-1.7,0.2-3.2,1.3-4.1,2.8L0,121.4l2.4-11.9
		c0.5-2.4,2.6-4.3,5-4.5l20-1.6c2.8-0.2,5.6,1.2,7,3.6c3.8,6.3,11,17.8,11.7,18.5c1,0.9,97.2,38.9,97.2,38.9l12,29.6L55.2,149.8z"/>
	<path class="st1" d="M465.6,135.7l15.7,18.4c3.5,4.1,9.5,5.3,14.3,2.7l16-8.5l-18.5,0c-3.9,0-7.5-1.9-9.7-5.1l-7-10.5l16.4-13.2
		c1.6-1.3,3.6-1.7,5.6-1.2l10.1,2.8c3.5,1,6.2,3.8,7.1,7.3l2.7,11.3l1-18.2c0.3-5.2-3.5-9.8-8.7-10.5l-11.2-1.5
		c-1.5-0.2-3,0.2-4.3,1l-16.6,7.9l10.6-18.3c1.5-2.7,4.5-4.1,7.6-3.7l16.8,2.4c1.7,0.2,3.2,1.3,4.1,2.8l3.2,5.7l-2.4-11.9
		c-0.5-2.4-2.5-4.3-5-4.5l-20-1.6c-2.8-0.2-5.6,1.2-7,3.6c-3.8,6.3-11,17.8-11.7,18.5c-1,0.9-97.2,38.9-97.2,38.9l-12,29.6
		L465.6,135.7z"/>
	<g id="hair">
		<path id="hair_1_" class="st2" d="M429.9,238.1c-5.2-13.8-15.3-24.1-25.4-32.1c-2.3-9-6.7-18.5-10.7-26c8.3,3.6,15.6,7.7,15.6,7.7
			c-5.3-7.8-13.9-15.5-23.1-22.2c-0.1-0.8,0-1.4,0.6-1.7c8.7-5.6,30.3,27.1,30.3,27.1c-2.3-30.5-21.6-43.7-31.4-54.9
			c-2.3-2.6-6.1-6.8-5.1-7.8c7.6-8.4,48.2,18.7,49.3,19.4c-10.4-27.8-40.7-41.4-51.5-49.9c-3.4-2.6-9.6-7.7-7.5-11
			c5.5-8.4,38.5,10.5,38.5,10.5C398,80.6,372,64.4,356.1,57.8c-3.7-1.5-4.2-3.7-3.6-5c3.6-7,35.2,4.7,35.2,4.7
			C365.6,32.6,325.6,34,325.6,34l-3.8-1.6c0.6-7.3,33.3-9.4,33.3-9.4c-22.5-10.5-51.9-2-51.9-2l-3.3-0.1
			c-1.6-6.8,29.9-11.9,29.9-11.9c-24.4-9.9-58.1,6.4-58.1,6.4s0.4-2.2,0.6-2.8C275,4.8,284.1,0,284.1,0C267-0.2,256,12.6,253.8,15.4
			c-2.2-2.7-13.3-15.5-30.3-15.4c0,0,9.1,4.8,12,12.5c0.2,0.6,0.6,2.8,0.6,2.8s-33.7-16.2-58.1-6.4c0,0,31.5,5.1,29.9,11.9l-3.3,0.1
			c0,0-29.5-8.4-51.9,2c0,0,32.7,2.1,33.3,9.4L182,34c0,0-40-1.5-62.2,23.5c0,0,31.6-11.7,35.2-4.7c0.7,1.3,0.1,3.5-3.6,5
			c-15.9,6.6-41.9,22.8-53.2,39.5c0,0,33-18.9,38.5-10.5c2.1,3.3-4.1,8.4-7.5,11c-10.9,8.5-41.2,22.1-51.5,49.9
			c1.1-0.7,41.7-27.8,49.3-19.4c0.9,1-2.9,5.2-5.2,7.8c-9.7,11.1-29.1,24.4-31.4,54.9c0,0,21.6-32.7,30.3-27.1
			c0.5,0.3,0.7,0.9,0.6,1.7c-9.2,6.7-17.8,14.4-23.1,22.2c0,0,7.3-4.2,15.6-7.7c-4,7.5-8.4,17-10.7,26
			c-10.2,7.9-20.3,18.2-25.4,32.1c1-0.6,32.3-21.6,45.2-21l0.6,7.6c-0.6,0.6-1.1,1.3-1.6,1.8c-9.7,11.1-29.1,24.4-31.4,54.8
			c0,0,21.6-32.7,30.3-27.1c1.4,0.9,0.2,3.7-1.7,7c-6.5,10.8-20.1,36-17.2,51.5c0,0,13.6-14.7,19.1-13.7c0,0-0.3,0.8-0.8,2.3l2-2.3
			l1.7,22l11.3-20.3l4.4,12.1l5.9-10.9l4,3.8c1.1-5.9,3.1-12.9,6.9-12.7c0,0,2,40.2,11.2,59.1c0,0,1.2-14.5,5.9-14.8l0.8,1.3
			l0.6-3.1l6.2-12.5l19,27.3l1.5-30.4l17.8,24.4l3.9-26.1l15.8,22c-0.2-27.1,12.3-35.4,14.7-36.8c2.4,1.4,14.9,9.7,14.7,36.8
			l15.8-22l4,26.1l17.8-24.4l1.5,30.4l19-27.3l6.2,12.5l0.6,3.1l0.8-1.3c4.7,0.3,5.9,14.8,5.9,14.8c9.2-18.9,11.2-59.1,11.2-59.1
			c3.8-0.2,5.8,6.8,6.9,12.7l4-3.8l5.9,10.9l4.4-12.1l11.4,20.3l1.7-22l2,2.3c-0.5-1.5-0.8-2.3-0.8-2.3c5.5-1,19.1,13.7,19.1,13.7
			c2.9-15.5-10.7-40.7-17.2-51.5c-1.9-3.2-3.1-6.1-1.7-6.9c8.7-5.6,30.3,27.1,30.3,27.1c-2.3-30.5-21.6-43.7-31.4-54.9
			c-0.5-0.5-1-1.2-1.6-1.8l0.6-7.6C397.6,216.5,428.9,237.4,429.9,238.1z"/>
	</g>
	<g>
		<g>
			<g>
				<path class="st0" d="M319.9,125.4c0,25-14.1,46.8-34.9,57.7c-9,4.8-19.4,7.5-30.3,7.5c-36,0-65.2-29.2-65.2-65.2
					s29.2-65.2,65.2-65.2c1.7,0,3.3,0.1,5,0.2C293.3,63,319.9,91.1,319.9,125.4z"/>
				<path class="st3" d="M311.2,124.1c0,26.6-19.2,48.9-44.9,54.9c-4.4,1-9,1.6-13.7,1.6c-32.3,0-58.6-25.2-58.6-56.4
					c0-29.8,24-54.3,54.4-56.3c1.4-0.1,2.8-0.2,4.1-0.2C285,67.6,311.2,92.9,311.2,124.1z"/>
				<path class="st4" d="M311.2,124.1c0,26.6-19.2,48.9-44.9,54.9c-24.4-9.4-41.6-33.1-41.6-60.8c0-20.3,9.3-38.4,23.8-50.4
					c1.4-0.1,2.8-0.2,4.1-0.2C285,67.6,311.2,92.9,311.2,124.1z"/>
				<ellipse class="st5" cx="256.5" cy="125.4" rx="35.6" ry="34.3"/>
				<path class="st0" d="M280.7,125.4c0,12.9-10.8,23.3-24.2,23.3s-24.2-10.4-24.2-23.3s10.8-23.3,24.2-23.3
					C269.9,102.1,280.7,112.5,280.7,125.4z"/>
				<path class="st4" d="M263.5,107.8c0,11.3-9.5,20.5-21.3,20.5s-21.3-9.2-21.3-20.5s9.5-20.5,21.3-20.5S263.5,96.5,263.5,107.8z"
					/>
			</g>
			<g>
				<path class="st6" d="M285.5,199.5c-6.8-4.8-16-7.7-25.7-7.9v0c-0.1,0-0.3,0-0.4,0c-0.1,0-0.3,0-0.4,0v0
					c-9.7,0.2-18.9,3-25.7,7.9c-4.6,3.2-15.4,14.4-11.7,24.3c2.4,6.4,13.8-0.9,16.5,0.6c2.4,1.3,9.9,11.2,20.9,11.4v0
					c0.1,0,0.3,0,0.4,0s0.3,0,0.4,0v0c11-0.2,18.5-10.2,20.9-11.4c2.7-1.4,14.1,5.8,16.5-0.6C300.9,213.9,290.1,202.8,285.5,199.5z"
					/>
				<path class="st1" d="M260.9,194.1c-8.8-1.5-19.3,1.5-26.1,6.4c-4.6,3.2-15.6,12.1-12,21.9c2.4,6.4,12.8-1.3,15.5,0.1
					C269.3,239.2,305.5,201.6,260.9,194.1z"/>
				<path class="st7" d="M260.5,197.8c-6.1-1-13.3,1-18,4.4c-3.1,2.2-10.8,8.3-8.2,15.1c1.6,4.4,8.8-0.9,10.7,0.1
					C266.4,228.9,291.3,203,260.5,197.8z"/>
			</g>
			<g>
				<g>
					<path class="st8" d="M318.2,248.3l-0.5-1l12.1-9.2l0.1,2.4c1.2,22.3,0.2,22.5-1,22.7c-0.1,0-0.2,0-0.4,0
						C327.6,263.3,325.9,261.9,318.2,248.3z"/>
					<path class="st4" d="M328.7,240.6c0,0,1.1,21.2,0,21.4c-1.2,0.2-9.3-14.3-9.3-14.3L328.7,240.6z"/>
				</g>
				<g>
					<path class="st8" d="M194.6,263.3c-0.1,0-0.2,0-0.4,0c-1.2-0.2-2.2-0.5-1-22.7l0.1-2.4l12.1,9.2l-0.5,1
						C197.4,261.9,195.6,263.3,194.6,263.3z"/>
					<path class="st4" d="M194.5,240.6c0,0-1.1,21.2,0,21.4c1.2,0.2,9.3-14.3,9.3-14.3L194.5,240.6z"/>
				</g>
				<path class="st8" d="M261.5,258c-34.8,0-64.6-12.4-76.6-29.9c7.9,20.1,39.2,35.1,76.6,35.1s68.7-15,76.6-35.1
					C326.1,245.6,296.3,258,261.5,258z"/>
			</g>
		</g>
	</g>
</g>
</svg>
