<?xml version="1.0" encoding="utf-8"?>
<!-- Generator: Adobe Illustrator 23.0.0, SVG Export Plug-In . SVG Version: 6.00 Build 0)  -->
<svg version="1.1" id="sky" xmlns="http://www.w3.org/2000/svg" xmlns:xlink="http://www.w3.org/1999/xlink" x="0px" y="0px"
	 viewBox="0 0 520.87 374.15" style="enable-background:new 0 0 520.87 374.15;" xml:space="preserve">
<style type="text/css">
	.st0{fill:#31606D;}
	.st1{fill:#75BEBE;}
	.st2{fill:#A7CCC4;}
	.st3{fill:#D9EEEA;}
	.st4{fill:#FFFFFF;}
	.st5{fill:#72BFBF;}
	.st6{fill:#374C4D;}
	.st7{opacity:0.55;fill:#E0ECF7;}
	.st8{fill:#32606D;}
</style>
<g id="sky_1_">
	<g>
		<g>
			<path class="st0" d="M244.45,314.77l-2.21,44.09c-0.29,5.9-5.16,10.53-11.06,10.53h-2.87c-0.7,0-1.39-0.05-2.08-0.14l-17.31-2.38
				c-1.8-0.25-3.62-0.27-5.42-0.09l-10.68,1.11c-0.49,0.05-0.98,0.03-1.46-0.06c-1.4-2.48-3.47-5.6-4.23-8.1
				c0.36-1.59,1.18-3.06,2.39-4.21c0.58-0.55,1.25-1.02,2.01-1.4l16.93-8.35l-0.96-34.05l35.19,2.91L244.45,314.77z"/>
			<path class="st1" d="M244.45,314.77l-2.21,44.09c-0.29,5.9-5.16,10.53-11.06,10.53h-2.87c-0.7,0-1.39-0.05-2.08-0.14l-17.31-2.38
				c-1.8-0.25-3.62-0.27-5.42-0.09l-10.68,1.11c-0.49,0.05-0.98,0.03-1.46-0.06c-1.4-2.48-3.47-5.6-4.23-8.1
				c0.36-1.59,1.18-3.06,2.39-4.21l23.52-5.16l-0.96-34.06l30.61-1.68L244.45,314.77z"/>
			<path class="st0" d="M193.26,364.9c0,5.01-4.06,9.08-9.08,9.08c-5.01,0-9.08-4.06-9.08-9.08c0-5.01,4.06-9.08,9.08-9.08
				C189.19,355.82,193.26,359.89,193.26,364.9z"/>
			
				<ellipse transform="matrix(0.7071 -0.7071 0.7071 0.7071 -203.9057 237.5241)" class="st1" cx="184.76" cy="364.9" rx="6.85" ry="6.85"/>
			<path class="st0" d="M204.66,363.91c0,5.66-4.58,10.24-10.24,10.24s-10.24-4.58-10.24-10.24c0-5.66,4.58-10.24,10.24-10.24
				S204.66,358.25,204.66,363.91z"/>
			<path class="st1" d="M201.91,363.91c0,4.14-3.35,7.49-7.49,7.49c-4.14,0-7.49-3.35-7.49-7.49c0-4.14,3.35-7.49,7.49-7.49
				C198.56,356.42,201.91,359.77,201.91,363.91z"/>
			<path class="st0" d="M223.49,361.52c0,6.64-5.38,12.03-12.03,12.03c-6.64,0-12.03-5.38-12.03-12.03
				c0-6.64,5.38-12.03,12.03-12.03C218.11,349.5,223.49,354.88,223.49,361.52z"/>
			<path class="st1" d="M220.27,361.52c0,4.86-3.94,8.8-8.8,8.8c-4.86,0-8.8-3.94-8.8-8.8c0-4.86,3.94-8.8,8.8-8.8
				C216.33,352.73,220.27,356.66,220.27,361.52z"/>
			<path class="st0" d="M250.05,358.04c0,8.56-6.94,15.5-15.5,15.5c-8.56,0-15.5-6.94-15.5-15.5c0-8.56,6.94-15.5,15.5-15.5
				C243.11,342.54,250.05,349.48,250.05,358.04z"/>
			<path class="st1" d="M245.88,358.04c0,6.26-5.08,11.34-11.34,11.34c-6.26,0-11.34-5.08-11.34-11.34
				c0-6.26,5.08-11.34,11.34-11.34C240.81,346.71,245.88,351.78,245.88,358.04z"/>
		</g>
		<g>
			<path class="st0" d="M268.52,314.77l2.21,44.09c0.29,5.9,5.16,10.53,11.06,10.53h2.87c0.7,0,1.39-0.05,2.08-0.14l17.31-2.38
				c1.8-0.25,3.62-0.27,5.42-0.09l10.68,1.11c0.49,0.05,0.98,0.03,1.46-0.06c1.4-2.48,3.47-5.6,4.23-8.1
				c-0.36-1.59-1.18-3.06-2.39-4.21c-0.58-0.55-1.25-1.02-2.01-1.4l-16.93-8.35l0.96-34.05l-35.19,2.91L268.52,314.77z"/>
			<path class="st1" d="M268.52,314.77l2.21,44.09c0.29,5.9,5.16,10.53,11.06,10.53h2.87c0.7,0,1.39-0.05,2.08-0.14l17.31-2.38
				c1.8-0.25,3.62-0.27,5.42-0.09l10.68,1.11c0.49,0.05,0.98,0.03,1.46-0.06c1.4-2.48,3.47-5.6,4.23-8.1
				c-0.36-1.59-1.18-3.06-2.39-4.21l-23.52-5.16l0.96-34.06l-30.61-1.68L268.52,314.77z"/>
			
				<ellipse transform="matrix(0.9833 -0.1822 0.1822 0.9833 -60.9829 66.0159)" class="st0" cx="328.79" cy="364.9" rx="9.08" ry="9.08"/>
			<path class="st1" d="M321.36,364.9c0,3.78,3.07,6.85,6.85,6.85c3.78,0,6.85-3.07,6.85-6.85c0-3.78-3.07-6.85-6.85-6.85
				C324.43,358.05,321.36,361.12,321.36,364.9z"/>
			<path class="st0" d="M308.31,363.91c0,5.66,4.58,10.24,10.24,10.24c5.66,0,10.24-4.58,10.24-10.24c0-5.66-4.58-10.24-10.24-10.24
				C312.89,353.67,308.31,358.25,308.31,363.91z"/>
			<path class="st1" d="M311.06,363.91c0,4.14,3.35,7.49,7.49,7.49c4.14,0,7.49-3.35,7.49-7.49c0-4.14-3.35-7.49-7.49-7.49
				C314.41,356.42,311.06,359.77,311.06,363.91z"/>
			<path class="st0" d="M289.48,361.52c0,6.64,5.38,12.03,12.03,12.03c6.64,0,12.03-5.38,12.03-12.03c0-6.64-5.38-12.03-12.03-12.03
				C294.86,349.5,289.48,354.88,289.48,361.52z"/>
			<path class="st1" d="M292.71,361.52c0,4.86,3.94,8.8,8.8,8.8c4.86,0,8.8-3.94,8.8-8.8c0-4.86-3.94-8.8-8.8-8.8
				C296.64,352.73,292.71,356.66,292.71,361.52z"/>
			<path class="st0" d="M262.93,358.04c0,8.56,6.94,15.5,15.5,15.5c8.56,0,15.5-6.94,15.5-15.5c0-8.56-6.94-15.5-15.5-15.5
				C269.87,342.54,262.93,349.48,262.93,358.04z"/>
			<path class="st1" d="M267.09,358.04c0,6.26,5.08,11.34,11.34,11.34c6.26,0,11.34-5.08,11.34-11.34c0-6.26-5.08-11.34-11.34-11.34
				C272.16,346.71,267.09,351.78,267.09,358.04z"/>
		</g>
	</g>
	<path class="st1" d="M55.24,149.84l-15.69,18.39c-3.54,4.15-9.5,5.28-14.32,2.72L9.2,162.43l18.53,0.01c3.88,0,7.51-1.93,9.67-5.15
		l7.03-10.48l-16.42-13.18c-1.57-1.26-3.64-1.69-5.57-1.16l-10.14,2.77c-3.52,0.96-6.24,3.77-7.09,7.32l-2.72,11.33l-1.02-18.25
		c-0.29-5.22,3.49-9.79,8.68-10.48l11.2-1.49c1.49-0.2,3.01,0.15,4.27,0.98l16.65,7.95l-10.56-18.29c-1.54-2.67-4.55-4.13-7.61-3.7
		L7.3,113.03c-1.71,0.25-3.21,1.27-4.07,2.77L0,121.45l2.37-11.89c0.49-2.45,2.55-4.29,5.04-4.49l20.05-1.6
		c2.84-0.23,5.56,1.16,7.04,3.59c3.83,6.27,10.95,17.85,11.71,18.52c1.05,0.91,97.21,38.86,97.21,38.86l11.98,29.63L55.24,149.84z"
		/>
	<path class="st1" d="M465.63,135.72l15.69,18.39c3.54,4.15,9.5,5.28,14.32,2.72l16.03-8.53l-18.53,0.01
		c-3.88,0-7.51-1.93-9.67-5.15l-7.03-10.48l16.42-13.18c1.57-1.26,3.64-1.69,5.57-1.16l10.14,2.77c3.52,0.96,6.24,3.77,7.09,7.32
		l2.72,11.33l1.02-18.25c0.29-5.22-3.49-9.79-8.68-10.48l-11.2-1.49c-1.5-0.2-3.01,0.15-4.27,0.98l-16.65,7.95l10.56-18.29
		c1.54-2.67,4.55-4.13,7.61-3.7l16.81,2.41c1.71,0.25,3.21,1.27,4.07,2.77l3.23,5.66l-2.37-11.89c-0.49-2.45-2.55-4.29-5.04-4.49
		l-20.05-1.6c-2.84-0.23-5.56,1.16-7.04,3.59c-3.83,6.27-10.95,17.85-11.71,18.52c-1.05,0.91-97.21,38.86-97.21,38.86l-11.98,29.63
		L465.63,135.72z"/>
	<g id="hair">
		<path class="st2" d="M429.89,238.06c-5.16-13.82-15.26-24.14-25.44-32.06c-2.34-9-6.71-18.49-10.7-26.02
			c8.3,3.56,15.6,7.74,15.6,7.74c-5.33-7.84-13.89-15.54-23.11-22.2c-0.11-0.8,0.05-1.4,0.57-1.74
			c8.73-5.58,30.28,27.09,30.28,27.09c-2.31-30.51-21.64-43.71-31.37-54.85c-2.27-2.59-6.08-6.78-5.15-7.82
			c7.64-8.42,48.23,18.68,49.33,19.42c-10.36-27.76-40.66-41.39-51.54-49.88c-3.38-2.63-9.65-7.67-7.5-11
			c5.47-8.39,38.49,10.54,38.49,10.54c-11.35-16.7-37.35-32.84-53.22-39.47c-3.69-1.54-4.24-3.73-3.57-4.99
			c3.63-7.04,35.24,4.65,35.24,4.65c-22.21-24.91-62.22-23.45-62.22-23.45l-3.83-1.59c0.59-7.31,33.32-9.44,33.32-9.44
			c-22.46-10.47-51.94-2.05-51.94-2.05l-3.34-0.13c-1.64-6.75,29.85-11.87,29.85-11.87c-24.42-9.85-58.13,6.39-58.13,6.39
			s0.43-2.22,0.65-2.81C274.99,4.83,284.11,0,284.11,0c-17.06-0.16-28.13,12.61-30.31,15.35C251.61,12.61,240.54-0.16,223.48,0
			c0,0,9.12,4.83,11.96,12.51c0.22,0.59,0.65,2.81,0.65,2.81s-33.72-16.24-58.14-6.39c0,0,31.49,5.12,29.85,11.87l-3.34,0.13
			c0,0-29.47-8.42-51.94,2.05c0,0,32.73,2.13,33.32,9.44l-3.83,1.59c0,0-40.01-1.46-62.22,23.45c0,0,31.6-11.69,35.24-4.65
			c0.67,1.26,0.12,3.45-3.57,4.99c-15.87,6.63-41.87,22.77-53.22,39.47c0,0,33.03-18.93,38.49-10.54c2.15,3.33-4.13,8.37-7.5,11
			c-10.88,8.49-41.18,22.12-51.54,49.88c1.11-0.74,41.69-27.85,49.33-19.42c0.93,1.03-2.88,5.22-5.15,7.82
			c-9.73,11.15-29.06,24.35-31.37,54.85c0,0,21.56-32.67,30.28-27.09c0.52,0.33,0.68,0.94,0.57,1.74
			c-9.22,6.67-17.78,14.37-23.11,22.2c0,0,7.3-4.18,15.6-7.74c-3.99,7.54-8.37,17.02-10.7,26.02
			c-10.18,7.92-20.28,18.24-25.44,32.06c0.97-0.65,32.3-21.57,45.15-21.03l0.6,7.62c-0.55,0.64-1.1,1.26-1.57,1.8
			c-9.73,11.15-29.06,24.35-31.37,54.85c0,0,21.56-32.67,30.28-27.09c1.38,0.89,0.2,3.71-1.74,6.95
			c-6.46,10.77-20.14,35.97-17.19,51.47c0,0,13.56-14.71,19.09-13.68c0,0-0.3,0.82-0.75,2.28l1.97-2.28l1.74,21.97l11.35-20.33
			l4.44,12.12l5.92-10.89l3.99,3.81c1.05-5.94,3.1-12.94,6.87-12.71c0,0,1.97,40.23,11.19,59.11c0,0,1.24-14.5,5.92-14.78l0.79,1.31
			l0.61-3.09l6.16-12.53l18.99,27.3l1.5-30.37l17.77,24.41l3.95-26.06l15.75,22.05c-0.23-27.08,12.26-35.39,14.68-36.75
			c2.42,1.35,14.91,9.66,14.68,36.75l15.75-22.05l3.95,26.06l17.77-24.41l1.5,30.37l18.99-27.3l6.16,12.53l0.61,3.09l0.79-1.31
			c4.68,0.28,5.92,14.78,5.92,14.78c9.22-18.88,11.19-59.11,11.19-59.11c3.77-0.23,5.82,6.76,6.87,12.71l3.99-3.81l5.92,10.89
			l4.44-12.12l11.35,20.33l1.74-21.97l1.97,2.28c-0.45-1.46-0.75-2.28-0.75-2.28c5.53-1.03,19.09,13.68,19.09,13.68
			c2.94-15.5-10.74-40.7-17.19-51.47c-1.93-3.23-3.12-6.06-1.74-6.95c8.73-5.58,30.28,27.09,30.28,27.09
			c-2.31-30.51-21.64-43.71-31.37-54.85c-0.47-0.54-1.02-1.16-1.57-1.8l0.6-7.62C397.59,216.49,428.92,237.41,429.89,238.06z"/>
	</g>
	<g>
		<g>
			<g>
				<path class="st0" d="M319.85,125.43c0,25.03-14.12,46.79-34.86,57.71c-9.05,4.8-19.4,7.49-30.34,7.49c-36,0-65.2-29.2-65.2-65.2
					c0-36,29.2-65.2,65.2-65.2c1.68,0,3.33,0.06,4.95,0.21C293.29,62.95,319.85,91.1,319.85,125.43z"/>
				<path class="st3" d="M311.25,124.08c0,26.65-19.16,48.95-44.91,54.86c-4.38,1.02-8.96,1.56-13.67,1.56
					c-32.32,0-58.55-25.24-58.55-56.42c0-29.83,24.01-54.26,54.41-56.3c1.35-0.09,2.76-0.15,4.14-0.15
					C285.02,67.63,311.25,92.9,311.25,124.08z"/>
				<path class="st4" d="M311.25,124.08c0,26.65-19.16,48.95-44.91,54.86c-24.37-9.41-41.64-33.06-41.64-60.79
					c0-20.29,9.26-38.43,23.83-50.36c1.35-0.09,2.76-0.15,4.14-0.15C285.02,67.63,311.25,92.9,311.25,124.08z"/>
				<ellipse class="st5" cx="256.49" cy="125.38" rx="35.64" ry="34.35"/>
				<path class="st0" d="M280.69,125.43c0,12.89-10.84,23.34-24.21,23.34c-13.37,0-24.21-10.45-24.21-23.34
					c0-12.89,10.84-23.34,24.21-23.34C269.85,102.09,280.69,112.54,280.69,125.43z"/>
				<path class="st4" d="M263.46,107.85c0,11.34-9.54,20.54-21.31,20.54c-11.77,0-21.31-9.2-21.31-20.54
					c0-11.34,9.54-20.54,21.31-20.54C253.92,87.31,263.46,96.5,263.46,107.85z"/>
			</g>
			<g>
				<path class="st6" d="M285.51,199.51c-6.76-4.84-15.96-7.68-25.67-7.86v-0.03c-0.14,0-0.28,0.01-0.42,0.02
					c-0.14,0-0.28-0.02-0.42-0.02v0.03c-9.72,0.18-18.92,3.02-25.67,7.86c-4.55,3.25-15.4,14.4-11.72,24.27
					c2.39,6.39,13.76-0.86,16.46,0.56c2.38,1.26,9.94,11.25,20.93,11.43v0.02c0.14,0,0.28-0.01,0.42-0.01
					c0.14,0,0.28,0.02,0.42,0.01v-0.02c10.99-0.19,18.55-10.17,20.93-11.43c2.71-1.42,14.07,5.84,16.46-0.56
					C300.91,213.91,290.06,202.76,285.51,199.51z"/>
				<path class="st1" d="M260.86,194.15c-8.83-1.48-19.34,1.51-26.1,6.36c-4.55,3.25-15.65,12.07-11.97,21.93
					c2.39,6.4,12.77-1.34,15.47,0.11C269.32,239.25,305.49,201.65,260.86,194.15z"/>
				<path class="st7" d="M260.53,197.83c-6.09-1.02-13.34,1.04-17.99,4.38c-3.14,2.24-10.79,8.32-8.25,15.12
					c1.65,4.41,8.81-0.93,10.67,0.07C266.36,228.92,291.3,203,260.53,197.83z"/>
			</g>
			<g>
				<g>
					<path class="st8" d="M318.23,248.34l-0.54-0.96l12.13-9.23l0.13,2.4c1.17,22.26,0.2,22.46-1.02,22.7
						c-0.11,0.02-0.23,0.05-0.35,0.05C327.59,263.3,325.85,261.91,318.23,248.34z"/>
					<path class="st4" d="M328.67,240.61c0,0,1.11,21.16,0,21.39c-1.17,0.24-9.33-14.29-9.33-14.29L328.67,240.61z"/>
				</g>
				<g>
					<path class="st8" d="M194.64,263.3c-0.13,0-0.24-0.02-0.35-0.05c-1.22-0.25-2.18-0.45-1.01-22.7l0.13-2.4l12.12,9.23
						l-0.54,0.96C197.36,261.91,195.61,263.3,194.64,263.3z"/>
					<path class="st4" d="M194.54,240.61c0,0-1.11,21.16,0,21.39c1.17,0.24,9.33-14.29,9.33-14.29L194.54,240.61z"/>
				</g>
				<path class="st8" d="M261.5,258.02c-34.82,0-64.57-12.4-76.65-29.91c7.93,20.1,39.22,35.12,76.65,35.12
					c37.43,0,68.72-15.02,76.65-35.12C326.07,245.63,296.32,258.02,261.5,258.02z"/>
			</g>
		</g>
	</g>
</g>
</svg>
