<?xml version="1.0" encoding="utf-8"?>
<!-- Generator: Adobe Illustrator 23.0.4, SVG Export Plug-In . SVG Version: 6.00 Build 0)  -->
<svg version="1.1" id="violet" xmlns="http://www.w3.org/2000/svg" xmlns:xlink="http://www.w3.org/1999/xlink" x="0px" y="0px"
	 viewBox="0 0 553.3 330.7" style="enable-background:new 0 0 553.3 330.7;" xml:space="preserve">
<style type="text/css">
	.st0{fill:#AAB0D9;}
	.st1{fill:#5E6597;}
	.st2{fill:#3B4269;}
	.st3{fill:#D5DAEE;}
	.st4{fill:#FFFFFF;}
	.st5{fill-rule:evenodd;clip-rule:evenodd;fill:#FFFFFF;}

#violet:hover #teeth {fill: red;} 


</style>
<g id="violet_1_">
	<g id="wings">
		<path class="st0" d="M0,255.4C31.8,122.8,79.2,24.1,160.9,0c-60.7,78.4,50.5,207.9,50.5,207.9s-44-28.8-58.1,25.6
			c-10.3-52.1-26.8-54.6-50.9,1.5c-6-58-21.5-49.7-44.7,12.8C49.2,191.6,39,224.5,0,255.4z"/>
		<path class="st0" d="M553.3,252.9c-33.4-131.6-82-228.8-164-250.3C450.9,79,341.4,212,341.4,212s43.7-30.2,58.4,23.8
			c9.6-52.4,26.2-55.4,50.9-0.1c5.3-58.2,20.9-50.3,44.8,11.4C503.4,190.6,513.9,223.2,553.3,252.9z"/>
	</g>
	<path class="st1" d="M409.9,213c-5.6-39.1-16-73.4-45.7-88.8l26.6-14.1c-22.8-18.9-46.8-35.2-83.7-24.4l10.1-20.7
		c-17.3-0.3-29.6,8.4-40.7,19.5c-11.1-11.1-23.4-19.9-40.7-19.5l10.1,20.7c-36.9-10.8-60.9,5.6-83.7,24.4l26.6,14.1
		c-29.7,15.4-40.1,49.8-45.7,88.8l24.1-5.9c-11.4,21.9-5.3,49.7,8.9,80l14.6-23.7c-4,17.5,13.4,36,36.2,54.8l2.5-31.1
		c3,18.7,21.1,31.2,39.3,43.7c-15.8-24-16.8-38.9,3-41.2c-9.1,2.2,28.3,16.9,12.3,41.2c18.2-12.5,36.3-25,39.3-43.7l2.5,31.1
		c22.8-18.8,40.2-37.3,36.2-54.8L377,287c14.1-30.3,20.3-58,8.9-80L409.9,213z"/>
	<ellipse class="st0" cx="276.7" cy="198.4" rx="103.2" ry="93.2"/>
	<g>
		<g>
			<path class="st2" d="M370.2,153.4c0,21.6-12.2,40.3-30,49.7c-7.8,4.1-16.7,6.4-26.1,6.4c-31,0-56.1-25.1-56.1-56.1
				S283,97.3,314,97.3c1.5,0,2.9,0.1,4.3,0.2C347.3,99.6,370.2,123.9,370.2,153.4z"/>
			<path class="st3" d="M362.8,152.3c0,22.9-16.5,42.2-38.7,47.2c-3.8,0.9-7.7,1.3-11.8,1.3c-27.8,0-50.4-21.7-50.4-48.6
				c0-25.7,20.7-46.7,46.9-48.5c1.2-0.1,2.4-0.1,3.6-0.1C340.2,103.7,362.8,125.4,362.8,152.3z"/>
			<path class="st4" d="M362.8,152.3c0,22.9-16.5,42.2-38.7,47.2c-21-8.1-35.9-28.5-35.9-52.4c0-17.5,8-33.1,20.5-43.4
				c1.2-0.1,2.4-0.1,3.6-0.1C340.2,103.7,362.8,125.4,362.8,152.3z"/>
			<path class="st0" d="M346.3,153.4c0,16.3-13.7,29.6-30.7,29.6s-30.7-13.2-30.7-29.6s13.7-29.6,30.7-29.6
				C332.5,123.8,346.3,137.1,346.3,153.4z"/>
			<path class="st2" d="M336.5,153.4c0,11.1-9.3,20.1-20.9,20.1c-11.5,0-20.9-9-20.9-20.1s9.3-20.1,20.9-20.1
				C327.1,133.3,336.5,142.3,336.5,153.4z"/>
			<path class="st4" d="M321.6,138.3c0,9.8-8.2,17.7-18.4,17.7s-18.4-7.9-18.4-17.7s8.2-17.7,18.4-17.7S321.6,128.5,321.6,138.3z"/>
		</g>
		<g>
			<path class="st2" d="M269.2,153.4c0,16.1-9.1,30.2-22.5,37.2c-5.8,3.1-12.5,4.8-19.6,4.8c-23.2,0-42-18.8-42-42s18.8-42,42-42
				c1.1,0,2.1,0,3.2,0.1C252.1,113.1,269.2,131.3,269.2,153.4z"/>
			<path class="st3" d="M263.7,152.5c0,17.2-12.4,31.6-28.9,35.4c-2.8,0.7-5.8,1-8.8,1c-20.8,0-37.8-16.3-37.8-36.4
				c0-19.2,15.5-35,35.1-36.3c0.9-0.1,1.8-0.1,2.7-0.1C246.8,116.1,263.7,132.4,263.7,152.5z"/>
			<path class="st4" d="M263.7,152.5c0,17.2-12.4,31.6-28.9,35.4c-15.7-6.1-26.9-21.3-26.9-39.2c0-13.1,6-24.8,15.4-32.5
				c0.9-0.1,1.8-0.1,2.7-0.1C246.8,116.1,263.7,132.4,263.7,152.5z"/>
			<path class="st0" d="M251.4,153.4c0,12.2-10.3,22.1-23,22.1s-23-9.9-23-22.1s10.3-22.1,23-22.1S251.4,141.1,251.4,153.4z"/>
			<ellipse class="st2" cx="228.4" cy="153.4" rx="15.6" ry="15.1"/>
			<path class="st4" d="M232.9,142.1c0,7.3-6.1,13.2-13.7,13.2c-7.6,0-13.7-5.9-13.7-13.2c0-7.3,6.1-13.2,13.7-13.2
				C226.7,128.8,232.9,134.8,232.9,142.1z"/>
		</g>
	</g>
	<g id="Teeths">
		<path id="teeth" class="st5" d="M350.9,230.2c-1.3,2.5-2.7,5-4.2,7.3c-1.2,1.9-2.5,3.8-3.9,5.6c-2.8,3.8-5.9,7.2-9.2,10.4
			c-1.4,1.3-2.8,2.5-4.2,3.7c-5.4,4.5-11.2,8.1-17.3,11.1c-1.4,0.7-2.7,1.3-4.1,1.8c-4.5,1.9-9.1,3.4-13.9,4.5
			c-1.3,0.3-2.7,0.6-4,0.9c-4.2,0.8-8.5,1.3-12.8,1.4c-1.3,0.1-2.7,0.1-4,0.1c-4.7,0-9.3-0.4-13.9-1.2c-1.4-0.2-2.7-0.5-4.1-0.8
			c-5.3-1.1-10.5-2.8-15.5-5c-1.4-0.6-2.8-1.2-4.1-2c-5.8-2.9-11.3-6.6-16.3-11c-1.5-1.3-2.9-2.6-4.3-4c-3.8-3.8-7.2-8.1-10.3-12.8
			c-1.4-2.2-2.8-4.5-4-6.9c-1.6-3.1-3.1-6.3-4.4-9.8c-2.6-7.1,3.9-14.1,11.1-11.9c1.6,0.5,3.2,1,4.8,1.5c1.4,0.4,2.7,0.8,4.1,1.2
			c5.3,1.5,10.6,2.9,15.8,4.1c1.4,0.3,2.7,0.6,4.1,0.9c5.2,1.1,10.3,2.1,15.3,2.8c1.4,0.2,2.7,0.4,4.1,0.6c5.7,0.8,11.4,1.4,17,1.8
			c1.3,0.1,2.7,0.2,4,0.2c5.3,0.3,10.6,0.4,15.8,0.3l4-0.1c4.6-0.2,9.2-0.5,13.7-1l4-0.5c5.7-0.7,11.3-1.7,16.9-2.9
			c1.4-0.3,2.7-0.6,4-0.9c2-0.5,4-1,6-1.5C348.2,216.2,354.3,223.7,350.9,230.2z"/>
		<path id="teeth_1_" class="st2" d="M232.4,221l1.7,24c0.1,1.4-1.2,2.4-2.5,2c-4.1-1.2-8.1-2.7-12.1-4.3c-0.7-0.3-1.2-0.9-1.2-1.7
			l-1.8-25.3c-0.1-0.8-0.6-1.5-1.4-1.8c0,0,0,0-0.1,0c-1.3-0.4-2.6,0.7-2.5,2l1.5,21.1c0.1,1.5-1.5,2.6-2.9,1.9
			c-1.4-0.7-2.7-1.4-4.1-2.1c-1.8-1-3.7,1.1-2.6,2.8c0,0,0.1,0.1,0.1,0.1c0.2,0.3,0.4,0.5,0.8,0.7c2.7,1.4,5.4,2.8,8.2,4.1
			c0.7,0.3,1.1,0.9,1.1,1.6l0.4,6.1c0,0.5,0.3,1,0.6,1.3l0.1,0.1c1.3,1.2,3.4,0.2,3.3-1.6l-0.2-2.2c-0.1-1.4,1.3-2.5,2.7-2
			c3.8,1.4,7.7,2.7,11.7,3.8c0.8,0.2,1.4,0.9,1.4,1.8l0.9,13.5c0.1,0.7,0.5,1.3,1.1,1.6c0,0,0,0,0.1,0c1.4,0.7,3-0.4,2.9-1.9
			l-0.8-11c-0.1-1.3,1.1-2.3,2.4-2.1c3.7,0.8,7.4,1.4,11.1,1.9c0.9,0.1,1.7,0.9,1.7,1.8l1.1,16.2c0.1,0.9,0.7,1.6,1.6,1.8
			c0,0,0,0,0,0c1.3,0.3,2.5-0.8,2.4-2.1l-1-14.9c-0.1-1.2,0.9-2.2,2.1-2.1c2.9,0.2,5.7,0.3,8.6,0.4c0.7,0,1.4,0,2.2,0
			c1.1,0,2,0.9,2,2l0.2,16.5c0,1.1,0.9,2,2,2c0,0,0.1,0,0.1,0c1.1,0,1.9-0.9,1.9-2l-0.2-16.6c0-1.1,0.8-1.9,1.9-2
			c3.2-0.1,6.5-0.4,9.8-0.7c1.2-0.1,2.2,0.8,2.2,2.1l-0.7,15.2c-0.1,1.3,1.1,2.3,2.4,2c0,0,0,0,0,0c0.9-0.2,1.5-1,1.5-1.8l0.8-16.6
			c0-0.9,0.8-1.7,1.7-1.9c3.2-0.5,6.4-1,9.7-1.6c1.3-0.2,2.4,0.7,2.4,2l-0.6,11.8c-0.1,1.5,1.5,2.5,2.8,1.9c0,0,0,0,0,0
			c0.7-0.3,1.1-1,1.1-1.7l0.6-13.9c0-0.9,0.7-1.6,1.5-1.8c4.2-1,8.5-2.1,12.9-3.4c1.3-0.4,2.6,0.6,2.5,2l-0.1,2.5
			c-0.1,1.8,2,2.8,3.3,1.6c0,0,0,0,0.1-0.1c0.4-0.4,0.6-0.9,0.6-1.4l0.2-5.2c0-0.8,0.6-1.5,1.4-1.8c2.3-0.7,4.7-1.5,7-2.3
			c0.4-0.1,0.7-0.4,1-0.7c0,0,0-0.1,0-0.1c1.2-1.6-0.4-3.7-2.2-3c-1.4,0.5-2.8,1-4.2,1.4c-1.3,0.4-2.6-0.6-2.6-2l0.8-16.7
			c0.1-1.3-1.1-2.3-2.4-2l0,0c-0.9,0.2-1.5,0.9-1.5,1.8l-0.9,19.6c0,0.8-0.6,1.6-1.4,1.8c-4.4,1.3-8.8,2.5-13.1,3.5
			c-1.3,0.3-2.5-0.7-2.4-2l0.9-19.3c0.1-1.2-1-2.2-2.2-2.1h0c-1,0.1-1.7,0.9-1.7,1.9l-1,21.4c0,0.9-0.7,1.7-1.6,1.9
			c-3.3,0.7-6.6,1.3-9.9,1.8c-1.2,0.2-2.3-0.8-2.3-2.1l1-21.5c0-1.1-0.9-2.1-2-2.1h0c-1,0-1.9,0.9-1.9,1.9l-1.1,23
			c0,1-0.8,1.8-1.8,1.9c-3.6,0.4-7.1,0.7-10.5,0.9c-1.1,0.1-2-0.8-2.1-2l-0.3-24c0-1-0.8-1.9-1.9-1.9h0c-1.1-0.1-2.1,0.9-2.1,2
			l0.3,24.1c0,1.1-0.9,2-2,2c-3.9,0-7.8-0.2-11.6-0.5c-1-0.1-1.7-0.9-1.8-1.8l-1.8-26.1c-0.1-0.9-0.8-1.7-1.7-1.8c0,0,0,0-0.1,0
			c-1.2-0.2-2.3,0.8-2.2,2.1l1.7,24.7c0.1,1.2-1,2.3-2.2,2.1c-3.9-0.5-7.7-1.2-11.5-2.1c-0.9-0.2-1.5-0.9-1.5-1.8l-1.9-26.7
			c-0.1-0.9-0.7-1.6-1.6-1.8l0,0C233.5,218.7,232.3,219.7,232.4,221z"/>
	</g>
</g>
</svg>
