<?xml version="1.0" encoding="utf-8"?>
<!-- Generator: Adobe Illustrator 23.0.0, SVG Export Plug-In . SVG Version: 6.00 Build 0)  -->
<svg version="1.1" id="violet" xmlns="http://www.w3.org/2000/svg" xmlns:xlink="http://www.w3.org/1999/xlink" x="0px" y="0px"
	 viewBox="0 0 553.33 330.68" style="enable-background:new 0 0 553.33 330.68;" xml:space="preserve">
<style type="text/css">
	.st0{fill:#AAB0D9;}
	.st1{fill:#5E6597;}
	.st2{fill:#3B4269;}
	.st3{fill:#D5DAEE;}
	.st4{fill:#FFFFFF;}
	.st5{fill-rule:evenodd;clip-rule:evenodd;fill:#FFFFFF;}
</style>
<g id="violet_1_">
	<g id="wings">
		<path class="st0" d="M0,255.38C31.77,122.78,79.15,24.09,160.87,0c-60.66,78.37,50.48,207.92,50.48,207.92
			s-44.03-28.84-58.05,25.65c-10.26-52.09-26.84-54.6-50.89,1.5c-6.04-58.02-21.52-49.67-44.67,12.78
			C49.19,191.56,39.02,224.52,0,255.38z"/>
		<path class="st0" d="M553.33,252.86C519.92,121.26,471.31,24.07,389.3,2.52c61.63,76.47-47.88,209.45-47.88,209.45
			s43.66-30.2,58.36,23.84c9.61-52.4,26.16-55.42,50.9-0.09c5.32-58.2,20.89-50.32,44.82,11.39
			C503.35,190.58,513.93,223.21,553.33,252.86z"/>
	</g>
	<path class="st1" d="M409.94,212.96c-5.6-39.08-15.99-73.44-45.67-88.84l26.64-14.07c-22.82-18.86-46.82-35.22-83.73-24.43
		l10.15-20.73c-17.28-0.35-29.61,8.41-40.66,19.51C265.61,73.3,253.29,64.54,236,64.89l10.15,20.73
		c-36.91-10.79-60.92,5.57-83.73,24.43l26.64,14.07c-29.68,15.4-40.08,49.76-45.67,88.84l24.11-5.92
		c-11.44,21.95-5.27,49.65,8.88,79.96l14.59-23.69c-4.03,17.48,13.35,36,36.16,54.79l2.54-31.1c3,18.66,21.08,31.21,39.33,43.68
		c-15.81-23.99-16.81-38.94,3.03-41.16c-9.08,2.23,28.3,16.92,12.31,41.16c18.25-12.47,36.33-25.02,39.33-43.68l2.54,31.1
		c22.81-18.78,40.19-37.3,36.16-54.79L376.95,287c14.15-30.31,20.32-58.01,8.88-79.96L409.94,212.96z"/>
	<ellipse class="st0" cx="276.66" cy="198.42" rx="103.24" ry="93.25"/>
	<g>
		<g>
			<path class="st2" d="M370.17,153.43c0,21.56-12.16,40.3-30.03,49.7c-7.8,4.13-16.7,6.45-26.13,6.45
				c-31.01,0-56.15-25.15-56.15-56.15s25.15-56.15,56.15-56.15c1.45,0,2.87,0.05,4.26,0.18C347.3,99.63,370.17,123.87,370.17,153.43
				z"/>
			<path class="st3" d="M362.76,152.27c0,22.95-16.5,42.16-38.67,47.25c-3.77,0.88-7.72,1.34-11.77,1.34
				c-27.83,0-50.42-21.74-50.42-48.59c0-25.69,20.68-46.73,46.86-48.48c1.16-0.08,2.38-0.13,3.56-0.13
				C340.17,103.66,362.76,125.42,362.76,152.27z"/>
			<path class="st4" d="M362.76,152.27c0,22.95-16.5,42.16-38.67,47.25c-20.99-8.11-35.86-28.48-35.86-52.36
				c0-17.48,7.98-33.1,20.52-43.37c1.16-0.08,2.38-0.13,3.56-0.13C340.17,103.66,362.76,125.42,362.76,152.27z"/>
			<path class="st0" d="M346.29,153.4c0,16.34-13.74,29.59-30.69,29.59c-16.95,0-30.69-13.25-30.69-29.59
				c0-16.34,13.74-29.59,30.69-29.59C332.55,123.81,346.29,137.06,346.29,153.4z"/>
			<path class="st2" d="M336.45,153.43c0,11.1-9.33,20.1-20.85,20.1c-11.51,0-20.85-9-20.85-20.1s9.33-20.1,20.85-20.1
				C327.11,133.34,336.45,142.33,336.45,153.43z"/>
			<path class="st4" d="M321.61,138.29c0,9.77-8.22,17.69-18.35,17.69s-18.35-7.92-18.35-17.69c0-9.77,8.21-17.69,18.35-17.69
				S321.61,128.53,321.61,138.29z"/>
		</g>
		<g>
			<path class="st2" d="M269.24,153.4c0,16.14-9.1,30.17-22.48,37.21c-5.84,3.09-12.5,4.83-19.56,4.83
				c-23.21,0-42.04-18.83-42.04-42.04c0-23.21,18.82-42.04,42.04-42.04c1.08,0,2.15,0.04,3.19,0.14
				C252.11,113.12,269.24,131.27,269.24,153.4z"/>
			<path class="st3" d="M263.69,152.53c0,17.18-12.35,31.56-28.95,35.37c-2.82,0.66-5.78,1-8.81,1c-20.83,0-37.75-16.27-37.75-36.37
				c0-19.23,15.48-34.98,35.08-36.3c0.87-0.06,1.78-0.1,2.67-0.1C246.78,116.13,263.69,132.43,263.69,152.53z"/>
			<path class="st4" d="M263.69,152.53c0,17.18-12.35,31.56-28.95,35.37c-15.71-6.07-26.85-21.32-26.85-39.2
				c0-13.09,5.97-24.78,15.37-32.47c0.87-0.06,1.78-0.1,2.67-0.1C246.78,116.13,263.69,132.43,263.69,152.53z"/>
			<path class="st0" d="M251.36,153.37c0,12.23-10.29,22.15-22.98,22.15c-12.69,0-22.98-9.92-22.98-22.15
				c0-12.23,10.29-22.15,22.98-22.15C241.07,131.22,251.36,141.14,251.36,153.37z"/>
			<ellipse class="st2" cx="228.38" cy="153.4" rx="15.61" ry="15.05"/>
			<path class="st4" d="M232.88,142.06c0,7.31-6.15,13.24-13.74,13.24c-7.59,0-13.74-5.93-13.74-13.24
				c0-7.31,6.15-13.24,13.74-13.24C226.73,128.82,232.88,134.75,232.88,142.06z"/>
		</g>
	</g>
	<g>
		<path class="st5" d="M350.9,230.18c-1.31,2.54-2.72,4.98-4.23,7.31c-1.22,1.95-2.54,3.83-3.92,5.64
			c-2.83,3.76-5.94,7.22-9.24,10.35c-1.36,1.3-2.76,2.54-4.19,3.73c-5.36,4.46-11.17,8.15-17.26,11.11
			c-1.35,0.66-2.7,1.28-4.08,1.84c-4.5,1.92-9.13,3.42-13.86,4.54c-1.33,0.33-2.68,0.6-4.03,0.86c-4.24,0.8-8.53,1.27-12.83,1.44
			c-1.33,0.06-2.66,0.08-3.99,0.06c-4.67-0.03-9.3-0.42-13.88-1.21c-1.37-0.22-2.71-0.48-4.06-0.78
			c-5.29-1.15-10.48-2.82-15.48-5.02c-1.39-0.59-2.77-1.25-4.14-1.95c-5.8-2.92-11.29-6.58-16.32-10.99
			c-1.47-1.26-2.9-2.61-4.29-4.02c-3.78-3.8-7.24-8.1-10.28-12.83c-1.44-2.21-2.8-4.52-4.04-6.93c-1.62-3.08-3.06-6.33-4.36-9.76
			c-2.65-7.05,3.91-14.11,11.1-11.87c1.6,0.5,3.2,0.99,4.79,1.46c1.36,0.4,2.74,0.81,4.09,1.18c5.32,1.53,10.6,2.88,15.84,4.07
			c1.35,0.3,2.7,0.6,4.06,0.88c5.16,1.11,10.26,2.05,15.32,2.82c1.35,0.2,2.71,0.41,4.05,0.58c5.72,0.81,11.38,1.4,16.97,1.78
			c1.34,0.1,2.67,0.17,4,0.24c5.33,0.27,10.61,0.36,15.84,0.26l3.99-0.12c4.6-0.17,9.17-0.5,13.69-0.98l4.01-0.46
			c5.7-0.72,11.33-1.66,16.89-2.87c1.35-0.29,2.69-0.59,4.03-0.91c2.01-0.48,4.02-0.99,6.02-1.54
			C348.17,216.18,354.26,223.66,350.9,230.18z"/>
		<path class="st2" d="M232.43,221.04l1.68,23.99c0.1,1.37-1.21,2.43-2.52,2.04c-4.1-1.23-8.13-2.67-12.1-4.29
			c-0.7-0.29-1.17-0.95-1.22-1.7l-1.76-25.34c-0.06-0.83-0.63-1.53-1.43-1.76c-0.02-0.01-0.04-0.01-0.06-0.02
			c-1.31-0.37-2.6,0.67-2.5,2.03l1.48,21.12c0.11,1.53-1.49,2.58-2.86,1.9c-1.37-0.68-2.73-1.38-4.09-2.11
			c-1.78-0.96-3.69,1.09-2.6,2.79c0.03,0.04,0.05,0.08,0.08,0.13c0.19,0.29,0.45,0.53,0.76,0.7c2.71,1.45,5.43,2.8,8.19,4.05
			c0.66,0.3,1.1,0.92,1.15,1.64l0.43,6.12c0.03,0.5,0.26,0.96,0.62,1.3l0.06,0.05c1.31,1.23,3.44,0.21,3.32-1.58l-0.16-2.21
			c-0.1-1.45,1.33-2.49,2.68-1.97c3.83,1.45,7.73,2.73,11.69,3.82c0.81,0.22,1.38,0.92,1.44,1.75l0.94,13.5
			c0.05,0.7,0.46,1.32,1.08,1.63c0.02,0.01,0.03,0.02,0.05,0.02c1.37,0.67,2.96-0.38,2.85-1.9l-0.77-11.02
			c-0.09-1.31,1.1-2.33,2.39-2.06c3.66,0.77,7.37,1.4,11.13,1.88c0.93,0.12,1.66,0.87,1.72,1.81l1.13,16.24
			c0.06,0.88,0.7,1.63,1.57,1.8c0.02,0,0.03,0.01,0.05,0.01c1.28,0.26,2.46-0.77,2.37-2.07l-1.05-14.89
			c-0.08-1.2,0.91-2.18,2.11-2.09c2.85,0.21,5.72,0.33,8.63,0.37c0.72,0.01,1.44,0.01,2.16,0.01c1.09,0,1.98,0.86,1.99,1.95
			l0.2,16.45c0.01,1.08,0.89,1.97,1.97,1.95c0.04,0,0.07,0,0.11,0c1.07-0.02,1.92-0.92,1.91-2l-0.2-16.56
			c-0.01-1.06,0.82-1.94,1.88-1.98c3.24-0.15,6.51-0.39,9.83-0.73c1.2-0.12,2.24,0.84,2.18,2.05l-0.72,15.19
			c-0.06,1.3,1.13,2.3,2.41,2.02c0.01,0,0.03-0.01,0.04-0.01c0.87-0.19,1.49-0.95,1.53-1.84l0.78-16.56
			c0.04-0.94,0.75-1.72,1.68-1.85c3.19-0.46,6.41-1.01,9.68-1.64c1.26-0.24,2.41,0.74,2.35,2.02l-0.56,11.79
			c-0.07,1.49,1.47,2.52,2.81,1.89c0.02-0.01,0.03-0.01,0.05-0.02c0.66-0.31,1.09-0.97,1.13-1.7l0.65-13.86
			c0.04-0.88,0.66-1.62,1.51-1.82c4.22-0.98,8.51-2.1,12.85-3.35c1.3-0.38,2.59,0.62,2.52,1.98l-0.12,2.46
			c-0.08,1.76,2.02,2.76,3.31,1.55c0.02-0.02,0.04-0.04,0.06-0.06c0.38-0.35,0.6-0.85,0.63-1.37l0.24-5.21
			c0.04-0.82,0.58-1.53,1.36-1.78c2.32-0.74,4.66-1.52,7.02-2.34c0.38-0.13,0.71-0.37,0.95-0.69c0.02-0.02,0.03-0.05,0.05-0.07
			c1.17-1.55-0.4-3.67-2.23-3.04c-1.4,0.49-2.79,0.96-4.18,1.42c-1.31,0.43-2.64-0.6-2.58-1.98l0.79-16.74
			c0.06-1.3-1.13-2.3-2.41-2.02l-0.04,0.01c-0.86,0.2-1.49,0.95-1.53,1.83l-0.93,19.64c-0.04,0.84-0.61,1.57-1.42,1.81
			c-4.43,1.32-8.78,2.49-13.07,3.52c-1.28,0.31-2.48-0.71-2.42-2.02l0.91-19.26c0.06-1.22-0.99-2.19-2.2-2.05l-0.04,0
			c-0.96,0.11-1.7,0.9-1.74,1.87l-1.01,21.41c-0.04,0.9-0.7,1.67-1.58,1.85c-3.33,0.68-6.62,1.27-9.88,1.77
			c-1.23,0.19-2.32-0.81-2.26-2.05l1.02-21.54c0.05-1.15-0.88-2.1-2.03-2.06l-0.04,0c-1.03,0.03-1.86,0.85-1.91,1.88l-1.09,22.96
			c-0.05,0.97-0.79,1.77-1.76,1.88c-3.56,0.4-7.07,0.68-10.54,0.86c-1.12,0.06-2.05-0.84-2.06-1.96l-0.28-23.99
			c-0.01-1.03-0.82-1.88-1.85-1.95l-0.05,0c-1.14-0.07-2.1,0.85-2.09,1.99l0.28,24.07c0.01,1.1-0.87,2-1.97,2
			c-3.92-0.01-7.77-0.16-11.58-0.47c-0.97-0.08-1.74-0.86-1.81-1.84l-1.81-26.07c-0.06-0.93-0.78-1.68-1.7-1.81
			c-0.02,0-0.04-0.01-0.05-0.01c-1.24-0.18-2.32,0.84-2.23,2.09l1.73,24.67c0.09,1.24-0.99,2.27-2.23,2.1
			c-3.89-0.54-7.72-1.25-11.5-2.11c-0.85-0.19-1.47-0.93-1.53-1.79l-1.86-26.66c-0.06-0.87-0.69-1.6-1.55-1.79l-0.04-0.01
			C233.53,218.7,232.34,219.73,232.43,221.04z"/>
	</g>
</g>
</svg>
