<?xml version="1.0" encoding="utf-8"?>
<!-- Generator: Adobe Illustrator 23.0.0, SVG Export Plug-In . SVG Version: 6.00 Build 0)  -->
<svg version="1.1" id="yellow" xmlns="http://www.w3.org/2000/svg" xmlns:xlink="http://www.w3.org/1999/xlink" x="0px" y="0px"
	 viewBox="0 0 569.63 388.61" style="enable-background:new 0 0 569.63 388.61;" xml:space="preserve">
<style type="text/css">
	.st0{fill:#D3A12D;}
	.st1{fill:#ECB221;}
	.st2{fill:#E0DEE0;}
	.st3{fill:#5A461B;}
	.st4{fill:#FFFFFF;}
	.st5{fill:#BDBAC0;}
	.st6{fill:#5A5A5C;}
	.st7{opacity:0.55;fill:#E0ECF7;}
</style>
<g id="yellow_1_">
	<g>
		<path class="st0" d="M559.76,153.2c-4.84,4.85-12.48,5.5-18.07,1.54l-17.3-12.23l23.71-7.38c7.48-2.33,13.06-8.6,14.51-16.29
			l0.94-4.93c1.46-7.71-1.45-15.61-7.59-20.51l-5.19-4.15l3.17,5.98c1.64,3.09,2.47,6.5,2.47,9.94c0,2.1-0.31,4.22-0.95,6.27
			c-2.25,7.22-8.17,12.7-15.54,14.38l-15.72,3.57l15.44-18.44c2.77-3.3,4.41-7.41,4.67-11.71l0.54-8.83
			c0.32-5.17-1.37-10.27-4.7-14.23l-0.25-0.29c-4.01-4.76-10-7.41-16.23-7.15l-10.24,0.41l6.2,1.53c2.17,0.53,4.24,1.42,6.1,2.62
			c1.86,1.2,3.53,2.71,4.91,4.47c3.37,4.28,4.87,9.74,4.15,15.14l-0.87,6.5c-0.58,4.39-2.6,8.47-5.73,11.6l-16.8,16.78l6.97-16.94
			c1.38-3.36,1.65-7.07,0.77-10.59l-2.3-9.14c-1.13-4.51-4.06-8.35-8.11-10.64c-2.9-1.64-6.23-2.39-9.55-2.15l-13.68,0.97l9.07,2.38
			c5.22,1.37,9.48,5.14,11.47,10.16l1.27,3.21c1.64,4.13,1.59,8.75-0.14,12.85l-11.6,27.54l-19.54-11.81
			c-5.75-3.47-9.04-9.9-8.49-16.59l0.57-6.98l-4.87,12.51c-3.52,9.05,0.91,19.25,9.93,22.86l13.26,5.3l-21.74,36.7
			c-5.09,8.59-13.96,14.25-23.89,15.25l-42.63,4.3c-0.29-7.27-1.02-14.3-2.18-21.02c-0.17,3.91-0.26,7.84-0.26,11.81
			c0,14.91,1.23,29.41,3.55,43.28l53.39-6.24c8.61-1,16.42-5.52,21.59-12.48l42.3-56.96l26.98,11.27
			c6.88,2.88,14.81-0.12,18.07-6.82l8.02-16.5L559.76,153.2z"/>
		<path class="st0" d="M165.84,198.96l-24.58,1.15c-10.46,0.49-20.54-4.01-27.13-12.14l-28.21-34.73l12.94-7.54
			c8.81-5.13,11.83-16.38,6.78-25.24l-6.97-12.22l1.67,7.15c1.6,6.86-0.82,14.03-6.26,18.53l-18.46,15.25l-16.29-26.78
			c-2.42-3.98-3.18-8.77-2.11-13.31l0.83-3.53c1.28-5.51,5.13-10.08,10.33-12.3l9.05-3.85l-14.35,1.08
			c-3.48,0.27-6.82,1.56-9.57,3.7c-0.87,0.68-1.66,1.42-2.37,2.23c-2.48,2.79-4.04,6.3-4.4,10.07l-0.98,9.85
			c-0.38,3.78,0.47,7.59,2.43,10.87l9.84,16.48L38,128.85c-3.74-2.76-6.45-6.69-7.73-11.15l-1.9-6.61
			c-1.58-5.5-0.87-11.39,1.97-16.34c0.73-1.27,1.58-2.45,2.54-3.52c2.13-2.4,4.79-4.31,7.8-5.54l6.2-2.53l-10.69,1.13
			c-6.49,0.69-12.31,4.36-15.73,9.92l-0.21,0.34c-2.85,4.62-3.82,10.17-2.68,15.49l1.93,9.08c0.93,4.42,3.26,8.43,6.64,11.43
			L45,147.3l-16.86-1.28c-7.91-0.6-14.89-5.39-18.34-12.54c-1.27-2.67-2-5.52-2.15-8.43c-0.17-2.89,0.24-5.82,1.24-8.6l2.36-6.71
			l-4.74,5.11c-5.62,6.02-7.42,14.67-4.72,22.45l1.73,4.97c2.7,7.75,9.46,13.39,17.56,14.66l25.73,4.01l-16.05,15.35
			c-5.21,4.97-13.23,5.46-19,1.19L0,168.74l10.86,15.87c4.42,6.47,13.11,8.36,19.8,4.31l26.26-15.85l52.65,52.59
			c6.42,6.42,15.22,9.9,24.32,9.63l49.58-1.54c-6.49-21.43-16.18-43.06-28.89-64.11C156.35,178.88,159.92,188.53,165.84,198.96z"/>
	</g>
	<path class="st1" d="M389.56,152.31c-0.07-8.22-1.74-15.91-5.41-22.95l21.93,5.39c-5.09-35.56-14.55-66.83-41.56-80.84l24.24-12.8
		c-20.76-17.16-42.61-32.05-76.19-22.23l9.24-18.86c-15.73-0.32-26.94,7.65-37,17.76c-10.06-10.1-21.27-18.07-37-17.76l9.24,18.86
		c-33.59-9.82-55.43,5.07-76.19,22.23l24.24,12.8c-27.01,14.01-36.47,45.28-41.56,80.84l21.93-5.39
		c-3.67,7.04-5.34,14.73-5.41,22.95c-20.83,27.24-33.43,62.7-33.43,101.47c0,57.63,27.82,107.94,69.17,134.83
		c9.44-29.09,36.77-50.12,69-50.12c32.24,0,59.56,21.03,69,50.12c41.35-26.89,69.18-77.2,69.18-134.83
		C422.99,215.01,410.39,179.55,389.56,152.31z"/>
	<g>
		<path id="face" class="st2" d="M378.23,216.52c0.06-1.08,0.16-2.15,0.16-3.25v-77.72c0-31.13-25.24-56.38-56.38-56.38h-13.44
			c-6.37-1.69-13.02-2.61-19.86-2.61c-6.85,0-13.49,0.92-19.86,2.61h-13.44c-31.13,0-56.37,25.24-56.37,56.38v77.72
			c0,1.1,0.1,2.17,0.16,3.25c-3.67,4.87-5.69,10.12-5.69,15.59c0,25.3,42.62,45.81,95.2,45.81c52.58,0,95.2-20.51,95.2-45.81
			C383.92,226.64,381.9,221.39,378.23,216.52z"/>
		<g>
			<g>
				<g>
					<path class="st3" d="M330.18,117.98c0,14.59,8.23,27.28,20.32,33.64c5.28,2.8,11.31,4.37,17.68,4.37c20.98,0,38-17.02,38-38
						s-17.02-38-38-38c-0.98,0-1.94,0.04-2.88,0.12C345.67,81.57,330.18,97.98,330.18,117.98z"/>
					<path class="st2" d="M335.2,117.2c0,15.53,11.17,28.53,26.17,31.98c2.55,0.59,5.22,0.91,7.97,0.91
						c18.84,0,34.12-14.71,34.12-32.88c0-17.39-14-31.63-31.71-32.81c-0.79-0.05-1.61-0.09-2.41-0.09
						C350.49,84.29,335.2,99.02,335.2,117.2z"/>
					<path class="st4" d="M335.2,117.2c0,15.53,11.17,28.53,26.17,31.98c14.21-5.49,24.27-19.27,24.27-35.44
						c0-11.83-5.4-22.4-13.89-29.36c-0.79-0.05-1.61-0.09-2.41-0.09C350.49,84.29,335.2,99.02,335.2,117.2z"/>
					<path class="st5" d="M346.35,117.96c0,11.06,9.3,20.02,20.77,20.02c11.47,0,20.77-8.97,20.77-20.02
						c0-11.06-9.3-20.02-20.77-20.02C355.65,97.93,346.35,106.9,346.35,117.96z"/>
					<ellipse class="st3" cx="367.12" cy="117.98" rx="14.11" ry="13.6"/>
					<path class="st4" d="M363.05,107.74c0,6.61,5.56,11.97,12.42,11.97c6.86,0,12.42-5.36,12.42-11.97
						c0-6.61-5.56-11.97-12.42-11.97C368.61,95.76,363.05,101.12,363.05,107.74z"/>
				</g>
				<g>
					<path class="st3" d="M251.89,118.46c0,14.59-8.23,27.27-20.32,33.64c-5.28,2.8-11.31,4.37-17.68,4.37c-20.98,0-38-17.02-38-38
						c0-20.99,17.02-38,38-38c0.98,0,1.94,0.03,2.88,0.12C236.41,82.05,251.89,98.45,251.89,118.46z"/>
					<path class="st2" d="M246.88,117.67c0,15.53-11.17,28.53-26.17,31.98c-2.55,0.59-5.22,0.91-7.97,0.91
						c-18.84,0-34.12-14.71-34.12-32.88c0-17.39,14-31.63,31.71-32.81c0.79-0.05,1.61-0.09,2.41-0.09
						C231.59,84.77,246.88,99.5,246.88,117.67z"/>
					<path class="st4" d="M246.88,117.67c0,15.53-11.17,28.53-26.17,31.98c-14.21-5.49-24.27-19.27-24.27-35.44
						c0-11.83,5.4-22.4,13.89-29.35c0.79-0.05,1.61-0.09,2.41-0.09C231.59,84.77,246.88,99.5,246.88,117.67z"/>
					<path class="st5" d="M235.73,118.44c0,11.06-9.3,20.02-20.77,20.02c-11.47,0-20.77-8.96-20.77-20.02s9.3-20.02,20.77-20.02
						C226.43,98.41,235.73,107.38,235.73,118.44z"/>
					<path class="st3" d="M229.07,118.46c0,7.51-6.32,13.6-14.11,13.6c-7.79,0-14.11-6.09-14.11-13.6c0-7.51,6.32-13.6,14.11-13.6
						C222.75,104.86,229.07,110.95,229.07,118.46z"/>
					<path class="st4" d="M219.03,108.21c0,6.61-5.56,11.97-12.42,11.97c-6.86,0-12.42-5.36-12.42-11.97
						c0-6.61,5.56-11.97,12.42-11.97C213.47,96.24,219.03,101.6,219.03,108.21z"/>
				</g>
				<g>
					<path class="st3" d="M347.33,112.15c0,22.02-12.42,41.17-30.67,50.77c-7.97,4.22-17.06,6.59-26.69,6.59
						c-31.68,0-57.36-25.69-57.36-57.37s25.69-57.36,57.36-57.36c1.48,0,2.93,0.05,4.35,0.18
						C323.96,57.19,347.33,81.96,347.33,112.15z"/>
					<path class="st2" d="M339.76,110.97c0,23.45-16.85,43.07-39.51,48.27c-3.85,0.9-7.89,1.37-12.03,1.37
						c-28.43,0-51.51-22.21-51.51-49.64c0-26.24,21.13-47.74,47.87-49.53c1.19-0.08,2.43-0.13,3.64-0.13
						C316.68,61.3,339.76,83.54,339.76,110.97z"/>
					<path class="st4" d="M339.76,110.97c0,23.45-16.85,43.07-39.51,48.27c-21.44-8.28-36.63-29.09-36.63-53.49
						c0-17.86,8.15-33.81,20.97-44.31c1.19-0.08,2.43-0.13,3.64-0.13C316.68,61.3,339.76,83.54,339.76,110.97z"/>
					<path class="st5" d="M322.93,112.12c0,16.69-14.04,30.23-31.35,30.23s-31.35-13.53-31.35-30.23
						c0-16.69,14.04-30.22,31.35-30.22S322.93,95.43,322.93,112.12z"/>
					<path class="st3" d="M312.88,112.15c0,11.34-9.53,20.53-21.3,20.53c-11.76,0-21.3-9.19-21.3-20.53
						c0-11.34,9.54-20.53,21.3-20.53C303.34,91.62,312.88,100.82,312.88,112.15z"/>
					<path class="st4" d="M297.72,96.69c0,9.98-8.39,18.07-18.75,18.07c-10.35,0-18.74-8.09-18.74-18.07s8.39-18.07,18.74-18.07
						C289.33,78.62,297.72,86.71,297.72,96.69z"/>
				</g>
			</g>
			<g>
				<path class="st6" d="M313.91,183.2c-6.49-4.65-15.34-7.38-24.68-7.56v-0.03c-0.14,0-0.27,0.01-0.41,0.02
					c-0.14,0-0.27-0.01-0.41-0.02v0.03c-9.34,0.17-18.18,2.9-24.68,7.56c-4.37,3.13-14.8,13.85-11.27,23.33
					c2.3,6.15,13.22-0.83,15.83,0.54c2.29,1.21,9.55,10.81,20.12,10.99v0.02c0.14,0,0.27-0.01,0.41-0.01c0.14,0,0.27,0.01,0.41,0.01
					v-0.02c10.56-0.18,17.83-9.77,20.12-10.99c2.6-1.37,13.53,5.61,15.83-0.54C328.7,197.04,318.28,186.32,313.91,183.2z"/>
				<path class="st5" d="M290.21,178.05c-8.49-1.43-18.59,1.46-25.09,6.11c-4.37,3.13-15.04,11.6-11.51,21.08
					c2.3,6.15,12.28-1.29,14.87,0.1C298.34,221.39,333.11,185.26,290.21,178.05z"/>
				<path class="st7" d="M289.89,181.58c-5.85-0.98-12.82,1-17.3,4.21c-3.02,2.16-10.37,8-7.93,14.53
					c1.58,4.24,8.47-0.89,10.25,0.07C295.5,211.47,319.47,186.55,289.89,181.58z"/>
			</g>
			<g>
				<g>
					<path class="st6" d="M343.35,240.89l-0.52-0.93l11.65-8.88l0.12,2.31c1.12,21.39,0.2,21.58-0.97,21.82
						c-0.11,0.02-0.22,0.04-0.34,0.04C352.35,255.26,350.68,253.93,343.35,240.89z"/>
					<path class="st4" d="M353.39,233.46c0,0,1.07,20.34,0,20.56c-1.13,0.23-8.97-13.73-8.97-13.73L353.39,233.46z"/>
				</g>
				<g>
					<path class="st6" d="M224.56,255.26c-0.12,0-0.23-0.02-0.34-0.04c-1.17-0.24-2.1-0.43-0.98-21.82l0.12-2.31l11.65,8.88
						l-0.52,0.93C227.17,253.93,225.5,255.26,224.56,255.26z"/>
					<path class="st4" d="M224.46,233.46c0,0-1.07,20.34,0,20.56c1.13,0.23,8.97-13.73,8.97-13.73L224.46,233.46z"/>
				</g>
				<path class="st6" d="M288.82,250.2c-33.47,0-62.07-11.92-73.68-28.75c7.62,19.32,37.7,33.76,73.68,33.76
					c35.97,0,66.06-14.43,73.68-33.76C350.89,238.28,322.29,250.2,288.82,250.2z"/>
			</g>
		</g>
	</g>
</g>
</svg>
